<svg width="175" height="67" viewBox="0 0 175 67" fill="none" xmlns="http://www.w3.org/2000/svg">
<path d="M4.14099 21.1921L13.5622 21.7508H18.6669L20.0348 11.9849L30.6661 18.2621L35.2458 8.81362L42.0544 13.397L50.1926 5.96802V18.3144L47.4221 23.2508L16.2455 33.3138L7.66723 26.0061L4.14099 21.1921Z" fill="url(#paint0_linear_1_482)"/>
<path d="M15.8949 34.6906L48.7384 24.0356L55.4022 32.1101V42.1553L50.8417 50.1762L39.5431 54.2758L34.4911 54.8499L33.2272 63.6399L21.0761 57.85L16.616 54.6407L15.8949 34.6906Z" fill="url(#paint1_linear_1_482)"/>
<path d="M46.5097 24.0356L48.2962 25.1411L50.8562 25.5167L20.836 36.8622L19.865 55.8282L17.9674 53.8182L16.6162 54.2758V33.9774L32.2254 28.2743L46.5097 24.0356Z" fill="#8E8E8E"/>
<path d="M30.4268 49.8563C34.7913 49.8801 44.7769 51.2149 49.4379 44.9698C54.5378 38.1351 52.1522 28.6902 47.3585 24.4907L49.249 23.4863L53.4496 27.8807L56.5633 37.3233L52.7214 47.5777L45.1428 52.7566L35.0376 53.7503L32.2467 62.5735L30.5918 61.7296L30.428 49.8539L30.4268 49.8563Z" fill="#BEBCC7"/>
<path d="M48.8651 8.81381L48.5518 8.64502L44.2113 23.4305L47.4218 23.251L48.8651 18.8911V8.81381Z" fill="#F0F3BD"/>
<path d="M48.8654 8.81362L41.2473 19.5886L41.9396 15.5104L43.457 12.1596L48.2962 8.14917L48.8654 8.81362Z" fill="#F48900"/>
<path d="M21.0761 14.3792L20.7915 14.4446L32.7011 23.4604L31.7098 20.2868L29.5192 17.9154L22.615 14.1831L21.0761 14.3792Z" fill="#F0F3BD"/>
<path d="M21.6177 13.9999L22.7692 26.2857L20.7257 24.1105L19.2119 19.9383L20.6157 13.8691L21.6177 13.9999Z" fill="#F48900"/>
<path d="M8.34868 22.6748L8.07007 22.884L22.7693 26.2859L20.7258 24.1107L16.4056 22.5191L11.1073 21.7512L8.34868 22.6748Z" fill="#F0F3BD"/>
<path d="M8.34857 22.6748H8.9297L20.0609 31.0464L16.1771 32.5286L8.34857 24.1927V22.6748Z" fill="#F48900"/>
<path d="M41.2471 19.5889L35.4645 10.1273L35.9022 10.2189L36.5802 9.30005L42.0543 12.6829L41.9395 15.5107L41.2471 19.5889Z" fill="#F0F3BD"/>
<path d="M31.7098 20.2865L32.7011 23.4601L36.5215 9.92749L35.8112 10.0048L34.6155 11.0436L31.2817 18.2289L31.7098 20.2865Z" fill="#F48900"/>
<path d="M50.2821 22.6376L50.1123 22.5152L53.3827 0L41.8306 11.1696L34.6562 4.87936L30.1267 15.7578L18.0605 9.05624L17.648 20.5456L0 18.5L14.7626 34.1044V55.6996L35.4286 67V55.1481H39.7118C49.6711 55.1481 57.7723 47.0951 57.7723 37.1949C57.7723 31.3515 55.0436 26.0466 50.2821 22.6376ZM8.34867 22.6745L20.7258 24.1092L21.0761 14.3766L31.7087 20.2841L35.9021 10.2175L41.9382 15.5094L48.8652 8.81257L46.9699 21.8543L16.7153 31.5168L8.34986 22.6733L8.34867 22.6745ZM39.713 51.9625H32.2252V61.6119L17.9684 53.818V34.8271L48.2972 25.1409C52.2396 27.914 54.5701 32.3631 54.5701 37.1961C54.5701 45.3382 47.905 51.9637 39.7142 51.9637L39.713 51.9625Z" fill="#0D0D0C"/>
<path d="M69.7849 51.4851V55.6703H68.7076V51.4851H67.3672V50.4819H71.1242V51.4851H69.7849Z" fill="white"/>
<path d="M76.2432 53.5448H74.3575V55.6713H73.2802V50.4829H74.3575V52.5416H76.2432V50.4829H77.3206V55.6713H76.2432V53.5448Z" fill="white"/>
<path d="M79.638 55.6703V54.7705H80.2765V51.3805H79.638V50.4807H81.9912V51.3805H81.3539V54.7705H81.9912V55.6703H79.638Z" fill="white"/>
<path d="M85.82 53.217L85.3453 52.1757H85.3238V55.6691H84.3098V50.4807H85.4864L86.84 52.9341L87.3147 53.9753H87.3362V50.4819H88.3502V55.6703H87.1736L85.82 53.217Z" fill="white"/>
<path d="M92.5828 53.4107L91.9371 54.2285V55.6703H90.8597V50.4819H91.9371V52.9495H91.9802L92.6821 51.9463L93.7953 50.4819H95.0149L93.3493 52.6155L95.1644 55.6703H93.8957L92.584 53.4107H92.5828Z" fill="white"/>
<path d="M97.8357 55.7524C97.6229 55.7524 97.4663 55.6966 97.3646 55.5848C97.263 55.4731 97.2128 55.3305 97.2128 55.1569V55.0084C97.2128 54.8348 97.263 54.6922 97.3646 54.5804C97.4663 54.4687 97.6229 54.4128 97.8357 54.4128C98.0486 54.4128 98.2052 54.4687 98.3069 54.5804C98.4085 54.6922 98.4587 54.8348 98.4587 55.0084V55.1569C98.4587 55.3305 98.4085 55.4731 98.3069 55.5848C98.2052 55.6966 98.0474 55.7524 97.8357 55.7524Z" fill="white"/>
<path d="M103.989 55.6703V50.4819H106.328C106.56 50.4819 106.768 50.5223 106.952 50.6044C107.136 50.6864 107.294 50.7993 107.423 50.9419C107.554 51.0858 107.654 51.2605 107.725 51.4661C107.795 51.6718 107.831 51.8964 107.831 52.1389C107.831 52.3814 107.795 52.612 107.725 52.8152C107.654 53.0185 107.554 53.192 107.423 53.3358C107.293 53.4797 107.136 53.5926 106.952 53.6734C106.768 53.7554 106.56 53.7959 106.328 53.7959H105.067V55.6691H103.989V55.6703ZM105.067 52.8152H106.201C106.362 52.8152 106.488 52.7724 106.58 52.6857C106.672 52.5989 106.719 52.4717 106.719 52.3029V51.976C106.719 51.8073 106.672 51.6801 106.58 51.5933C106.488 51.5065 106.362 51.4637 106.201 51.4637H105.067V52.8164V52.8152Z" fill="white"/>
<path d="M110.058 55.6703V50.4819H111.135V54.6671H113.021V55.6703H110.058Z" fill="white"/>
<path d="M118.401 55.6703L118.047 54.4365H116.396L116.042 55.6703H114.95L116.581 50.4819H117.915L119.524 55.6703H118.404H118.401ZM117.232 51.5077H117.196L116.651 53.4773H117.786L117.232 51.5077Z" fill="white"/>
<path d="M122.343 55.6703V53.6413L120.648 50.4819H121.854L122.917 52.5478H122.931L123.952 50.4819H125.121L123.427 53.6342V55.6715H122.343V55.6703Z" fill="white"/>
<path d="M127.206 55.7524C126.993 55.7524 126.836 55.6966 126.735 55.5848C126.633 55.4731 126.583 55.3305 126.583 55.1569V55.0084C126.583 54.8348 126.633 54.6922 126.735 54.5804C126.836 54.4687 126.993 54.4128 127.206 54.4128C127.418 54.4128 127.575 54.4687 127.677 54.5804C127.778 54.6922 127.829 54.8348 127.829 55.0084V55.1569C127.829 55.3305 127.778 55.4731 127.677 55.5848C127.575 55.6966 127.417 55.7524 127.206 55.7524Z" fill="white"/>
<path d="M134.138 55.6703L133.018 50.4819H134.081L134.549 52.9721L134.81 54.4139H134.832L135.144 52.9721L135.689 50.4819H136.866L137.418 52.9721L137.723 54.4139H137.745L138.007 52.9721L138.481 50.4819H139.503L138.355 55.6703H137.128L136.504 52.8604L136.263 51.7229H136.242L135.993 52.8604L135.369 55.6703H134.135H134.138Z" fill="white"/>
<path d="M141.483 55.6703V54.7705H142.121V51.3805H141.483V50.4807H143.836V51.3805H143.199V54.7705H143.836V55.6703H141.483Z" fill="white"/>
<path d="M147.665 53.217L147.19 52.1757H147.169V55.6691H146.155V50.4807H147.331L148.685 52.9341L149.16 53.9753H149.181V50.4819H150.195V55.6703H149.018L147.665 53.217Z" fill="white"/>
<path d="M155.796 50.4819H158.199C158.611 50.4819 158.931 50.6032 159.16 50.8457C159.389 51.0881 159.503 51.4103 159.503 51.812C159.503 52.0105 159.478 52.1793 159.429 52.3172C159.378 52.4563 159.313 52.5704 159.23 52.6595C159.148 52.7487 159.051 52.814 158.94 52.8568C158.828 52.8996 158.709 52.9222 158.582 52.9281V52.9721C158.7 52.9721 158.825 52.9947 158.954 53.0387C159.084 53.0827 159.203 53.154 159.311 53.2503C159.42 53.3466 159.511 53.4725 159.584 53.6259C159.657 53.7792 159.694 53.9682 159.694 54.1905C159.694 54.3937 159.662 54.5851 159.598 54.767C159.535 54.9476 159.447 55.1057 159.333 55.2389C159.219 55.3732 159.085 55.4778 158.929 55.555C158.773 55.6323 158.602 55.6703 158.418 55.6703H155.795V50.4819H155.796ZM156.873 52.6084H157.943C158.086 52.6084 158.197 52.5668 158.277 52.4824C158.357 52.398 158.398 52.2815 158.398 52.1329V51.9095C158.398 51.7609 158.357 51.6444 158.277 51.56C158.197 51.4756 158.086 51.434 157.943 51.434H156.873V52.6084ZM156.873 54.7194H158.114C158.257 54.7194 158.368 54.679 158.452 54.597C158.534 54.515 158.576 54.3997 158.576 54.2511V53.9979C158.576 53.8493 158.534 53.734 158.452 53.652C158.369 53.57 158.257 53.5296 158.114 53.5296H156.873V54.7194Z" fill="white"/>
<path d="M161.751 55.6703V54.7705H162.389V51.3805H161.751V50.4807H164.104V51.3805H163.466V54.7705H164.104V55.6703H161.751Z" fill="white"/>
<path d="M169.562 54.8455H169.527C169.488 55.1081 169.362 55.3257 169.144 55.4992C168.926 55.6728 168.631 55.7595 168.258 55.7595C167.975 55.7595 167.709 55.7025 167.464 55.5884C167.218 55.4742 167.004 55.3055 166.818 55.0832C166.634 54.8597 166.489 54.5828 166.385 54.2511C166.281 53.9195 166.23 53.5356 166.23 53.0993C166.23 52.6631 166.284 52.2768 166.393 51.9392C166.501 51.6029 166.653 51.32 166.849 51.0917C167.045 50.8635 167.28 50.69 167.555 50.5711C167.829 50.4523 168.134 50.3928 168.47 50.3928C168.913 50.3928 169.297 50.4927 169.619 50.6935C169.94 50.8944 170.193 51.1951 170.377 51.5969L169.498 52.1247C169.423 51.9214 169.304 51.7491 169.144 51.6076C168.983 51.4662 168.759 51.396 168.471 51.396C168.135 51.396 167.868 51.4983 167.67 51.7003C167.471 51.9036 167.372 52.2233 167.372 52.6596V53.4916C167.372 53.9231 167.471 54.2416 167.67 54.4473C167.868 54.6529 168.135 54.7563 168.471 54.7563C168.603 54.7563 168.728 54.7397 168.846 54.7076C168.965 54.6755 169.069 54.6256 169.158 54.559C169.248 54.4924 169.317 54.4116 169.368 54.3177C169.418 54.2238 169.442 54.1121 169.442 53.9837V53.7234H168.52V52.7796H170.469V55.6716H169.561V54.8466L169.562 54.8455Z" fill="white"/>
<path d="M173.489 55.7524C173.276 55.7524 173.12 55.6966 173.018 55.5848C172.916 55.4731 172.866 55.3305 172.866 55.1569V55.0084C172.866 54.8348 172.916 54.6922 173.018 54.5804C173.12 54.4687 173.276 54.4128 173.489 54.4128C173.702 54.4128 173.859 54.4687 173.96 54.5804C174.062 54.6922 174.112 54.8348 174.112 55.0084V55.1569C174.112 55.3305 174.062 55.4731 173.96 55.5848C173.859 55.6966 173.701 55.7524 173.489 55.7524Z" fill="white"/>
<path d="M67.3672 46.551V21.7263H76.4751C78.3596 21.7263 80.0002 22.0853 81.3968 22.8032C82.7922 23.5212 83.8815 24.5256 84.6648 25.8152C85.448 27.1049 85.8402 28.6145 85.8402 30.3416C85.8402 32.0687 85.4551 33.5426 84.6839 34.8323C83.9126 36.1219 82.8604 37.1204 81.5259 37.8252C80.1915 38.5313 78.6801 38.8843 76.9905 38.8843H73.7955V46.551H67.3672ZM76.4751 27.4579H73.7943V33.3358H76.8422C77.6003 33.3358 78.2197 33.0564 78.6968 32.4966C79.1739 31.9367 79.4131 31.2438 79.4131 30.4153C79.4131 29.5868 79.156 28.8582 78.6418 28.2983C78.1276 27.7385 77.4054 27.4579 76.4751 27.4579Z" fill="white"/>
<path d="M87.8226 46.5511V19.9019H93.8827V46.5511H87.8226Z" fill="white"/>
<path d="M109.276 46.551V45.4563C108.663 45.9674 107.972 46.3632 107.201 46.6426C106.43 46.9219 105.604 47.0622 104.722 47.0622C103.474 47.0622 102.299 46.8244 101.197 46.3502C100.096 45.8759 99.1226 45.1948 98.2772 44.3057C97.433 43.4178 96.7718 42.3658 96.2947 41.1475C95.8176 39.9303 95.5784 38.58 95.5784 37.0954C95.5784 35.6108 95.8176 34.2237 96.2947 33.0065C96.7718 31.7893 97.433 30.7493 98.2772 29.8851C99.1214 29.0222 100.095 28.3518 101.197 27.8775C102.299 27.4033 103.462 27.1655 104.686 27.1655C105.568 27.1655 106.4 27.3058 107.183 27.5851C107.966 27.8656 108.663 28.2484 109.277 28.7345V27.6755H115.337V46.5499H109.277L109.276 46.551ZM105.529 41.7323C106.705 41.7323 107.647 41.3068 108.357 40.4545C109.068 39.6023 109.423 38.4837 109.423 37.0954C109.423 35.7071 109.068 34.5945 108.357 33.7553C107.647 32.915 106.705 32.4954 105.529 32.4954C104.354 32.4954 103.381 32.909 102.684 33.7363C101.985 34.5636 101.637 35.6833 101.637 37.0942C101.637 38.5051 101.986 39.632 102.684 40.4711C103.382 41.3103 104.33 41.7311 105.529 41.7311V41.7323Z" fill="white"/>
<path d="M122.736 46.5509C121.659 43.4355 120.563 40.2904 119.449 37.1143C118.334 33.9383 117.239 30.7932 116.162 27.6777H122.515C123.151 29.601 123.794 31.5289 124.442 33.464C125.09 35.3991 125.722 37.3283 126.334 39.2503C126.97 37.3283 127.607 35.3991 128.244 33.464C128.88 31.5289 129.504 29.601 130.116 27.6777H136.359C135.282 30.7932 134.186 33.9383 133.072 37.1143C131.958 40.2904 130.862 43.4367 129.785 46.5509H122.734H122.736Z" fill="white"/>
<path d="M145.688 47.1346C144.268 47.1346 142.946 46.885 141.722 46.3858C140.498 45.8877 139.432 45.1805 138.527 44.2688C137.621 43.3559 136.916 42.2921 136.415 41.0749C135.913 39.8578 135.662 38.5324 135.662 37.0954C135.662 35.6583 135.913 34.333 136.415 33.1158C136.916 31.8987 137.621 30.8408 138.527 29.9398C139.432 29.04 140.498 28.3399 141.722 27.8406C142.946 27.3426 144.268 27.0918 145.688 27.0918C147.109 27.0918 148.461 27.3414 149.672 27.8406C150.885 28.3399 151.943 29.04 152.85 29.9398C153.755 30.8408 154.459 31.8998 154.961 33.1158C155.463 34.333 155.715 35.6595 155.715 37.0954C155.715 38.5313 155.463 39.8578 154.961 41.0749C154.459 42.2921 153.755 43.3571 152.85 44.2688C151.943 45.1817 150.885 45.8877 149.672 46.3858C148.46 46.8838 147.133 47.1346 145.688 47.1346ZM145.688 41.6954C146.888 41.6954 147.849 41.2639 148.571 40.3998C149.293 39.5357 149.655 38.435 149.655 37.0954C149.655 35.7558 149.293 34.6313 148.571 33.7922C147.849 32.9518 146.888 32.5322 145.688 32.5322C144.489 32.5322 143.528 32.9518 142.805 33.7922C142.083 34.6313 141.722 35.7332 141.722 37.0954C141.722 38.4576 142.083 39.5357 142.805 40.3998C143.528 41.2639 144.489 41.6954 145.688 41.6954Z" fill="white"/>
<path d="M154.943 27.6768H161.7C162.142 28.4066 162.594 29.1435 163.059 29.8853C163.524 30.6282 163.977 31.3639 164.417 32.0937C164.882 31.3639 165.347 30.6282 165.813 29.8853C166.278 29.1435 166.743 28.4066 167.208 27.6768H173.892C172.937 29.1614 171.965 30.6579 170.972 32.1674C169.981 33.677 169.008 35.1854 168.052 36.695C169.055 38.3258 170.072 39.9685 171.1 41.6231C172.128 43.2788 173.132 44.9215 174.111 46.5512H167.354C166.864 45.7239 166.369 44.8906 165.866 44.0503C165.364 43.2099 164.868 42.3767 164.379 41.5494C163.889 42.3767 163.382 43.2099 162.855 44.0503C162.328 44.8894 161.821 45.7239 161.331 46.5512H154.647C155.65 44.9691 156.666 43.3573 157.695 41.7146C158.723 40.0719 159.738 38.4601 160.743 36.878C159.788 35.3696 158.82 33.8363 157.842 32.278C156.862 30.7209 155.895 29.1875 154.941 27.6779L154.943 27.6768Z" fill="white"/>
<defs>
<linearGradient id="paint0_linear_1_482" x1="46.1737" y1="11.2587" x2="16.82" y2="26.4371" gradientUnits="userSpaceOnUse">
<stop stop-color="#F5E301"/>
<stop offset="1" stop-color="#F5BA0A"/>
</linearGradient>
<linearGradient id="paint1_linear_1_482" x1="15.8949" y1="43.8384" x2="55.4022" y2="43.8384" gradientUnits="userSpaceOnUse">
<stop stop-color="#ADADAD"/>
<stop offset="1" stop-color="white"/>
</linearGradient>
</defs>
</svg>
