<svg width="37" height="30" viewBox="0 0 37 30" fill="none" xmlns="http://www.w3.org/2000/svg">
<path fill-rule="evenodd" clip-rule="evenodd" d="M24.6145 20.2488H31.5511C32.5345 20.2488 33.3325 21.024 33.3325 21.9812V27.2677C33.3325 28.2248 32.5345 29 31.5511 29H24.6145C23.6311 28.9983 22.8331 28.2231 22.8331 27.2659V21.9812C22.8331 21.024 23.6311 20.2488 24.6145 20.2488V20.2488Z" stroke="white" stroke-width="2" stroke-linecap="round" stroke-linejoin="round"/>
<path d="M25.1359 20.2488V17.946C25.1359 16.3186 26.4553 14.9991 28.0827 14.9991C29.7101 14.9991 31.0296 16.3186 31.0296 17.946V20.2488" stroke="white" stroke-width="2" stroke-linecap="round" stroke-linejoin="round"/>
<path d="M17.5835 23.5736H5.15926C3.32188 23.5736 1.83447 22.0862 1.83447 20.2488V4.32479C1.83447 2.48741 3.32188 1 5.15926 1H31.7576C33.595 1 35.0824 2.48741 35.0824 4.32479V13.2492" stroke="white" stroke-width="2" stroke-linecap="round" stroke-linejoin="round"/>
<path d="M21.3966 9.69876C23.0188 11.3209 23.0188 13.9527 21.3966 15.5766C19.7745 17.1988 17.1426 17.1988 15.5187 15.5766C13.8966 13.9545 13.8966 11.3227 15.5187 9.69876C17.1426 8.07486 19.7745 8.07486 21.3966 9.69876" stroke="white" stroke-width="2" stroke-linecap="round" stroke-linejoin="round"/>
<path d="M8.83406 18.499H7.08417" stroke="white" stroke-width="2" stroke-linecap="round" stroke-linejoin="round"/>
<path d="M29.8327 6.24964H28.0828" stroke="white" stroke-width="2" stroke-linecap="round" stroke-linejoin="round"/>
</svg>
