<svg width="34" height="31" viewBox="0 0 34 31" fill="none" xmlns="http://www.w3.org/2000/svg">
<path fill-rule="evenodd" clip-rule="evenodd" d="M8.84375 1V6.4375V1Z" fill="#7D04FC"/>
<path d="M8.84375 1V6.4375" stroke="white" stroke-width="2" stroke-linecap="round" stroke-linejoin="round"/>
<path fill-rule="evenodd" clip-rule="evenodd" d="M32.4062 30L25.1562 13.6875L17.9062 30" fill="#7D04FC"/>
<path d="M32.4062 30L25.1562 13.6875L17.9062 30" stroke="white" stroke-width="2" stroke-linecap="round" stroke-linejoin="round"/>
<path fill-rule="evenodd" clip-rule="evenodd" d="M19.5192 26.375H30.7929H19.5192Z" fill="#7D04FC"/>
<path d="M19.5192 26.375H30.7929" stroke="white" stroke-width="2" stroke-linecap="round" stroke-linejoin="round"/>
<path fill-rule="evenodd" clip-rule="evenodd" d="M1.59375 20.9375C9.01594 20.3503 15.5065 13.8597 16.0956 6.4375H1.59556" fill="#7D04FC"/>
<path d="M1.59375 20.9375C9.01594 20.3502 15.5065 13.8597 16.0956 6.4375H1.59556" stroke="white" stroke-width="2" stroke-linecap="round" stroke-linejoin="round"/>
<path fill-rule="evenodd" clip-rule="evenodd" d="M16.0938 20.9375C11.4556 20.5714 7.39738 16.5132 7.03125 11.875L16.0938 20.9375Z" fill="#7D04FC"/>
<path d="M16.0938 20.9375C11.4556 20.5714 7.39738 16.5132 7.03125 11.875" stroke="white" stroke-width="2" stroke-linecap="round" stroke-linejoin="round"/>
</svg>
