<svg width="32" height="32" viewBox="0 0 32 32" fill="none" xmlns="http://www.w3.org/2000/svg">
<path fill-rule="evenodd" clip-rule="evenodd" d="M17.0206 2.06491C16.4296 2.54307 15.5848 2.54307 14.9938 2.06491C13.7022 1.03412 11.9734 0.734709 10.4103 1.27108C8.84719 1.80746 7.66648 3.10526 7.27985 4.71196C7.14313 5.33709 6.65368 5.82465 6.02802 5.95896C4.18872 6.33227 2.65569 7.59623 1.9386 9.33064C1.2215 11.0651 1.41433 13.0426 2.45297 14.6058C2.82723 15.1537 2.82723 15.8751 2.45297 16.4231C1.41433 17.9863 1.2215 19.9638 1.9386 21.6982C2.65569 23.4327 4.18872 24.6966 6.02802 25.0699C6.65368 25.2042 7.14313 25.6918 7.27985 26.3169C7.66859 27.9222 8.85015 29.2179 10.4129 29.7525C11.9757 30.2871 13.7033 29.9867 14.9938 28.9559C15.5848 28.4778 16.4296 28.4778 17.0206 28.9559C18.3134 29.9867 20.0434 30.2851 21.6068 29.747C23.1702 29.2089 24.3501 27.9089 24.7346 26.3008C24.8713 25.6757 25.3608 25.1881 25.9864 25.0538C27.826 24.6803 29.3591 23.4159 30.0759 21.6811C30.7927 19.9462 30.5992 17.9684 29.5599 16.4054C29.1871 15.8581 29.1871 15.1385 29.5599 14.5913C30.5992 13.0282 30.7927 11.0504 30.0759 9.3156C29.3591 7.58078 27.826 6.31637 25.9864 5.94285C25.3608 5.80854 24.8713 5.32098 24.7346 4.69585C24.3459 3.09054 23.1643 1.7949 21.6015 1.26026C20.0388 0.725629 18.3112 1.02604 17.0206 2.05685V2.06491Z" stroke="white" stroke-width="2" stroke-linecap="round" stroke-linejoin="round"/>
<path d="M16.0073 2.4209V28.5901" stroke="white" stroke-width="2" stroke-linecap="round" stroke-linejoin="round"/>
<path d="M20.8408 21.9508C20.8408 20.1712 22.2835 18.7286 24.063 18.7286" stroke="white" stroke-width="2" stroke-linecap="round" stroke-linejoin="round"/>
<path d="M11.174 9.06207C11.174 10.8417 9.73139 12.2843 7.95181 12.2843" stroke="white" stroke-width="2" stroke-linecap="round" stroke-linejoin="round"/>
<path d="M11.174 21.9508C11.174 20.1712 9.73139 18.7286 7.95181 18.7286" stroke="white" stroke-width="2" stroke-linecap="round" stroke-linejoin="round"/>
<path d="M20.8408 9.06207C20.8408 10.8417 22.2835 12.2843 24.063 12.2843" stroke="white" stroke-width="2" stroke-linecap="round" stroke-linejoin="round"/>
</svg>
