<svg width="38" height="38" viewBox="0 0 38 38" fill="none" xmlns="http://www.w3.org/2000/svg">
<path d="M1.09557 19.5983H2.47322" stroke="white" stroke-width="2" stroke-linecap="round" stroke-linejoin="round"/>
<path d="M19.0053 1.68883V3.06648" stroke="white" stroke-width="2" stroke-linecap="round" stroke-linejoin="round"/>
<path d="M6.33073 6.924L7.32265 7.91591" stroke="white" stroke-width="2" stroke-linecap="round" stroke-linejoin="round"/>
<path d="M23.6175 27.6518H14.3928" stroke="white" stroke-width="2" stroke-linecap="round" stroke-linejoin="round"/>
<path fill-rule="evenodd" clip-rule="evenodd" d="M13.9573 27.2282C10.8396 25.0294 9.50494 21.0648 10.6583 17.4282C11.8116 13.7917 15.1873 11.3209 19.0023 11.3209C22.8173 11.3209 26.193 13.7917 27.3463 17.4282C28.4997 21.0648 27.165 25.0294 24.0473 27.2282C23.6391 27.5005 23.39 27.9554 23.3805 28.446V32.4825C23.3805 33.45 22.9961 34.3779 22.312 35.0621C21.6279 35.7462 20.7 36.1306 19.7325 36.1306H18.2721C17.3046 36.1306 16.3767 35.7462 15.6926 35.0621C15.0085 34.3779 14.6241 33.45 14.6241 32.4825V28.4543C14.6182 27.9605 14.3686 27.5015 13.9573 27.2282V27.2282Z" stroke="white" stroke-width="2" stroke-linecap="round" stroke-linejoin="round"/>
<path d="M35.5369 19.5983H36.9145" stroke="white" stroke-width="2" stroke-linecap="round" stroke-linejoin="round"/>
<path d="M30.6874 7.91591L31.6793 6.924" stroke="white" stroke-width="2" stroke-linecap="round" stroke-linejoin="round"/>
</svg>
