<svg width="28" height="30" viewBox="0 0 28 30" fill="none" xmlns="http://www.w3.org/2000/svg">
<path d="M16.4146 17.4968C17.7478 18.83 17.7478 20.9929 16.4146 22.3275C15.0814 23.6607 12.9185 23.6607 11.5839 22.3275C10.2507 20.9944 10.2507 18.8314 11.5839 17.4968C12.9185 16.1622 15.0814 16.1622 16.4146 17.4968" stroke="white" stroke-width="2" stroke-linecap="round" stroke-linejoin="round"/>
<path d="M6.80922 24.7294H5.37107" stroke="white" stroke-width="2" stroke-linecap="round" stroke-linejoin="round"/>
<path d="M22.6288 14.6624H21.1907" stroke="white" stroke-width="2" stroke-linecap="round" stroke-linejoin="round"/>
<path fill-rule="evenodd" clip-rule="evenodd" d="M24.0669 28.9H3.78911C2.2805 28.9 1.05664 27.6762 1.05664 26.1675V13.0804C1.05664 11.5718 2.2805 10.348 3.78911 10.348H24.2108C25.7194 10.348 26.9432 11.5718 26.9432 13.0804V26.0237C26.9432 27.6129 25.6561 28.9 24.0669 28.9Z" stroke="white" stroke-width="2" stroke-linecap="round" stroke-linejoin="round"/>
<path d="M24.067 6.03353H3.93293" stroke="white" stroke-width="2" stroke-linecap="round" stroke-linejoin="round"/>
<path d="M22.6288 1.71907H5.37107" stroke="white" stroke-width="2" stroke-linecap="round" stroke-linejoin="round"/>
</svg>
