<svg width="174" height="58" viewBox="0 0 174 58" fill="none" xmlns="http://www.w3.org/2000/svg">
<path d="M159.492 0.000188499H13.8077C13.2767 0.000188499 12.752 0.000188499 12.2224 0.00308849C11.779 0.00598848 11.3392 0.014413 10.8916 0.0215034C9.91916 0.032961 8.94903 0.118619 7.98962 0.277732C7.03155 0.440309 6.1035 0.746814 5.23685 1.18688C4.37126 1.63067 3.58034 2.20732 2.89279 2.89593C2.20163 3.5826 1.6255 4.3763 1.18655 5.2465C0.74638 6.11498 0.441167 7.04563 0.281449 8.00631C0.120213 8.96578 0.03345 9.93631 0.0219396 10.9092C0.00850067 11.3538 0.00708148 11.7998 0 12.2444V45.76C0.00708148 46.2102 0.00850067 46.6464 0.0219396 47.0968C0.0334536 48.0696 0.120216 49.0401 0.281449 49.9995C0.440726 50.9608 0.745957 51.8919 1.18655 52.7607C1.6253 53.6281 2.20152 54.4186 2.89279 55.1015C3.57773 55.7931 4.36916 56.3702 5.23685 56.8106C6.10349 57.2518 7.03145 57.5601 7.98962 57.7252C8.94919 57.8831 9.91922 57.9688 10.8916 57.9816C11.3392 57.9914 11.779 57.9971 12.2224 57.9971C12.752 58 13.2767 58 13.8077 58H159.492C160.013 58 160.542 58 161.062 57.9971C161.503 57.9971 161.956 57.9914 162.397 57.9816C163.368 57.9694 164.336 57.8837 165.293 57.7252C166.255 57.559 167.186 57.2507 168.057 56.8106C168.924 56.3699 169.714 55.7929 170.399 55.1015C171.088 54.4159 171.666 53.626 172.11 52.7607C172.547 51.8913 172.849 50.9602 173.006 49.9995C173.168 49.04 173.258 48.0697 173.275 47.0968C173.281 46.6464 173.281 46.2102 173.281 45.76C173.292 45.2332 173.292 44.7093 173.292 44.174V13.8275C173.292 13.2965 173.292 12.7698 173.281 12.2444C173.281 11.7998 173.281 11.3538 173.275 10.9091C173.258 9.93617 173.168 8.96585 173.006 8.00625C172.849 7.04612 172.547 6.11555 172.11 5.24645C171.216 3.50221 169.798 2.08242 168.057 1.18675C167.186 0.747759 166.255 0.441336 165.293 0.277602C164.336 0.117787 163.368 0.0320997 162.397 0.0213004C161.956 0.0142245 161.503 0.00572748 161.062 0.00289999C160.542 0 160.013 0 159.492 0V0.000188499Z" fill="black"/>
<path d="M12.2295 56.7311C11.7882 56.7311 11.3577 56.7255 10.9199 56.7156C10.013 56.7038 9.1083 56.6247 8.2131 56.4791C7.37837 56.3352 6.56974 56.0674 5.81388 55.6847C5.06495 55.3051 4.38187 54.8074 3.79081 54.2106C3.19118 53.6208 2.69197 52.9368 2.31295 52.1857C1.92975 51.4296 1.66456 50.6192 1.5266 49.7827C1.37762 48.8839 1.29702 47.9751 1.28548 47.064C1.2763 46.7582 1.26428 45.74 1.26428 45.74V12.2443C1.26428 12.2443 1.27708 11.2418 1.28556 10.9472C1.2966 10.0376 1.37673 9.13017 1.52527 8.23274C1.66348 7.39394 1.92888 6.58122 2.31228 5.8227C2.68991 5.07206 3.18635 4.38754 3.78236 3.79568C4.3777 3.19819 5.06297 2.69792 5.81317 2.3131C6.56729 1.93158 7.37439 1.66571 8.20743 1.52439C9.10557 1.37731 10.0135 1.29779 10.9235 1.2865L12.2302 1.2688H161.055L162.377 1.28721C163.279 1.29794 164.179 1.37675 165.069 1.52297C165.91 1.66606 166.726 1.93379 167.488 2.31735C168.991 3.09287 170.214 4.31983 170.986 5.82624C171.363 6.57952 171.624 7.38561 171.761 8.21716C171.911 9.12196 171.995 10.0365 172.012 10.9536C172.016 11.3642 172.016 11.8053 172.016 12.2443C172.028 12.7881 172.028 13.3056 172.028 13.8274V44.1739C172.028 44.7007 172.028 45.2147 172.016 45.7329C172.016 46.2044 172.016 46.6364 172.011 47.081C171.994 47.9817 171.911 48.8799 171.763 49.7685C171.628 50.6111 171.364 51.4278 170.981 52.19C170.6 52.933 170.103 53.6111 169.511 54.1993C168.919 54.7993 168.235 55.2999 167.484 55.6819C166.723 56.0676 165.909 56.3363 165.069 56.4791C164.173 56.6255 163.269 56.7046 162.362 56.7156C161.937 56.7255 161.493 56.7311 161.062 56.7311L159.492 56.734L12.2295 56.7311Z" fill="black"/>
<path d="M35.869 29.4358C35.9006 26.976 37.1886 24.7038 39.2817 23.4154C37.9553 21.5186 35.8133 20.3592 33.5018 20.2867C31.07 20.0312 28.7125 21.7437 27.4733 21.7437C26.2101 21.7437 24.3022 20.3121 22.2476 20.3544C19.5444 20.4419 17.0853 21.9435 15.7702 24.3098C12.9694 29.165 15.0585 36.3005 17.7414 40.2251C19.0837 42.1469 20.6524 44.2935 22.7051 44.2174C24.7138 44.134 25.464 42.9349 27.8887 42.9349C30.2908 42.9349 30.9946 44.2174 33.089 44.169C35.2444 44.1339 36.6024 42.2387 37.8976 40.2987C38.862 38.9294 39.6042 37.416 40.0965 35.8146C37.5365 34.7305 35.872 32.2189 35.869 29.4358Z" fill="white"/>
<path d="M31.9133 17.7057C33.0885 16.2931 33.6675 14.4774 33.5273 12.6443C31.7319 12.8331 30.0733 13.6923 28.8822 15.0507C27.7061 16.391 27.1103 18.1444 27.226 19.9247C29.0455 19.9435 30.7731 19.1256 31.9133 17.7057Z" fill="white"/>
<path fill-rule="evenodd" clip-rule="evenodd" d="M54.4056 39.3525H61.2603L62.905 44.2193H65.8579L59.3652 26.2133H56.3487L49.8561 44.2193H52.7595L54.4056 39.3525ZM60.549 37.1067H55.1155L57.7955 29.2081H57.8705L60.549 37.1067Z" fill="white"/>
<path fill-rule="evenodd" clip-rule="evenodd" d="M74.4082 44.3566C77.6991 44.3566 79.8798 41.7356 79.8798 37.6561C79.8798 33.5879 77.6863 30.9541 74.3587 30.9541C72.6464 30.8988 71.0424 31.7905 70.1839 33.2749H70.1344V31.0914H67.5294V48.5622H70.2207V42.0599H70.2829C71.1049 43.5537 72.7072 44.4457 74.4082 44.3566ZM73.649 33.251C75.742 33.251 77.1138 34.9984 77.1138 37.6562C77.1138 40.3381 75.7421 42.0728 73.649 42.0728C71.5927 42.0728 70.2096 40.3013 70.2096 37.6562C70.2096 35.0352 71.5927 33.251 73.649 33.251Z" fill="white"/>
<path fill-rule="evenodd" clip-rule="evenodd" d="M88.8389 44.3566C92.1297 44.3566 94.3105 41.7356 94.3105 37.6561C94.3105 33.5879 92.117 30.9541 88.7893 30.9541C87.077 30.8988 85.473 31.7905 84.6146 33.2749H84.5651V31.0914H81.9601V48.5622H84.6513V42.0598H84.7136C85.5356 43.5536 87.1378 44.4457 88.8389 44.3566ZM88.0794 33.251C90.1725 33.251 91.5443 34.9984 91.5443 37.6562H91.5443C91.5443 40.3381 90.1725 42.0728 88.0794 42.0728C86.0232 42.0728 84.6401 40.3013 84.6401 37.6562C84.6401 35.0352 86.0232 33.251 88.0794 33.251Z" fill="white"/>
<path d="M103.848 39.2023C104.047 40.9879 105.78 42.1603 108.147 42.1603C110.416 42.1603 112.048 40.9878 112.048 39.3778C112.048 37.9802 111.063 37.1434 108.733 36.5699L106.402 36.0077C103.1 35.2091 101.567 33.6628 101.567 31.1536C101.567 28.0469 104.271 25.913 108.111 25.913C111.91 25.913 114.515 28.0469 114.603 31.1536H111.886C111.724 29.3567 110.24 28.272 108.072 28.272C105.904 28.272 104.421 29.3695 104.421 30.9667C104.421 32.2397 105.368 32.9888 107.686 33.5622L109.668 34.0493C113.357 34.923 114.89 36.407 114.89 39.0408C114.89 42.4094 112.21 44.5193 107.948 44.5193C103.96 44.5193 101.267 42.459 101.093 39.2022L103.848 39.2023Z" fill="white"/>
<path d="M120.698 27.9847V31.0915H123.191V33.2254H120.698V40.4626C120.698 41.5869 121.197 42.1109 122.293 42.1109C122.589 42.1057 122.885 42.0849 123.179 42.0485V44.1697C122.686 44.2619 122.185 44.3036 121.684 44.2943C119.029 44.2943 117.994 43.296 117.994 40.75V33.2254H116.088V31.0915H117.994V27.9847H120.698Z" fill="white"/>
<path fill-rule="evenodd" clip-rule="evenodd" d="M130.854 30.9301C127.065 30.9301 124.636 33.5256 124.636 37.6561C124.636 41.7979 127.041 44.3822 130.854 44.3822C134.668 44.3822 137.074 41.7979 137.074 37.6561C137.074 33.5255 134.655 30.9301 130.854 30.9301ZM130.854 33.1503C133.035 33.1503 134.331 34.8226 134.331 37.656H134.331C134.331 40.5008 133.035 42.1604 130.854 42.1604C128.673 42.1604 127.378 40.5008 127.378 37.656C127.378 34.8353 128.673 33.1503 130.854 33.1503Z" fill="white"/>
<path d="M139.292 31.0913H141.859V33.3258H141.922C142.28 31.8874 143.596 30.8974 145.075 30.954C145.385 30.9529 145.695 30.9866 145.997 31.0545V33.575C145.606 33.4552 145.197 33.4002 144.788 33.4122C143.997 33.38 143.231 33.6958 142.692 34.2764C142.153 34.8571 141.894 35.6447 141.984 36.4325V44.2192H139.292L139.292 31.0913Z" fill="white"/>
<path fill-rule="evenodd" clip-rule="evenodd" d="M152.76 44.3822C155.726 44.3822 158.044 42.7467 158.406 40.3635L155.85 40.3635C155.36 41.5816 154.128 42.3325 152.822 42.21C151.843 42.2461 150.895 41.8592 150.221 41.1478C149.546 40.4363 149.209 39.4689 149.295 38.4915V38.3287H158.555V37.4055C158.555 33.4251 156.274 30.9301 152.647 30.9301C148.959 30.9301 146.578 33.6007 146.578 37.7184C146.578 41.8234 148.946 44.3822 152.76 44.3822ZM155.863 36.4454L149.308 36.4454C149.306 35.5591 149.657 34.7086 150.284 34.0829C150.911 33.4572 151.762 33.1083 152.647 33.1135C153.525 33.0946 154.372 33.4435 154.982 34.0759C155.592 34.7084 155.912 35.5672 155.863 36.4454Z" fill="white"/>
<path fill-rule="evenodd" clip-rule="evenodd" d="M57.8275 13.8459C57.0399 13.0131 55.9208 12.5779 54.7783 12.66H51.6571V21.3119H54.7783C57.3521 21.3119 58.8441 19.723 58.8441 16.959C58.9882 15.8212 58.6151 14.6787 57.8275 13.8459ZM54.6283 20.0884H52.9991V13.8827H54.6283C55.4405 13.8375 56.2303 14.1582 56.7817 14.7569C57.3332 15.3556 57.5885 16.1698 57.478 16.9767C57.5972 17.7869 57.3455 18.6078 56.7927 19.2115C56.2399 19.8151 55.4448 20.1372 54.6283 20.0884Z" fill="white"/>
<path fill-rule="evenodd" clip-rule="evenodd" d="M61.8065 15.1214C60.8088 15.7413 60.2484 16.8739 60.3602 18.0442C60.2462 19.2158 60.8062 20.3506 61.8047 20.9718C62.8033 21.5931 64.0675 21.5931 65.066 20.9718C66.0646 20.3506 66.6245 19.2158 66.5106 18.0442C66.6224 16.8739 66.0619 15.7413 65.0643 15.1214C64.0666 14.5015 62.8042 14.5015 61.8065 15.1214ZM63.4376 15.8013C64.552 15.8013 65.1869 16.629 65.1869 18.0443H65.187C65.187 19.4652 64.552 20.2922 63.4376 20.2922C62.319 20.2922 61.6896 19.4709 61.6896 18.0443C61.6896 16.629 62.3189 15.8013 63.4376 15.8013Z" fill="white"/>
<path d="M74.6862 21.3117H73.3512L72.0035 16.5029H71.9017L70.5596 21.3117H69.2373L67.4398 14.7825H68.7451L69.9133 19.7647H70.0095L71.3501 14.7825H72.5847L73.9254 19.7647H74.0272L75.1897 14.7825H76.4766L74.6862 21.3117Z" fill="white"/>
<path d="M77.9882 14.7825H79.2271V15.8197H79.3232C79.6577 15.0561 80.4391 14.5889 81.2692 14.6565C81.9119 14.6081 82.5417 14.855 82.9808 15.3274C83.4199 15.7998 83.6206 16.4465 83.5263 17.0849V21.3117H82.2394V17.4085C82.2394 16.3593 81.784 15.8375 80.8322 15.8375C80.3963 15.8171 79.9732 15.9884 79.6739 16.3065C79.3746 16.6245 79.229 17.0575 79.2752 17.4921V21.3117H77.9882L77.9882 14.7825Z" fill="white"/>
<path d="M85.5769 12.2336H86.8639V21.3117H85.5769V12.2336Z" fill="white"/>
<path fill-rule="evenodd" clip-rule="evenodd" d="M90.0996 15.1214C89.1018 15.7413 88.5413 16.874 88.653 18.0444C88.5392 19.216 89.0992 20.3507 90.0979 20.9719C91.0965 21.5931 92.3606 21.5931 93.3592 20.9719C94.3579 20.3507 94.9179 19.216 94.8041 18.0444C94.9158 16.874 94.3553 15.7413 93.3575 15.1214C92.3598 14.5015 91.0973 14.5015 90.0996 15.1214ZM91.7303 15.8013C92.8447 15.8013 93.4797 16.629 93.4797 18.0443H93.4797C93.4797 19.4652 92.8447 20.2922 91.7303 20.2922C90.6117 20.2922 89.9824 19.4709 89.9824 18.0443C89.9824 16.629 90.6117 15.8013 91.7303 15.8013Z" fill="white"/>
<path fill-rule="evenodd" clip-rule="evenodd" d="M98.5843 17.5161C97.0329 17.6124 96.1589 18.29 96.1589 19.4653C96.1611 20.0225 96.3986 20.5529 96.8128 20.9252C97.2269 21.2975 97.779 21.477 98.3326 21.4193C99.1223 21.4559 99.8705 21.0643 100.291 20.3942H100.393V21.3117H101.632V16.8506C101.632 15.4714 100.71 14.6565 99.075 14.6565C97.5958 14.6565 96.5422 15.3758 96.4107 16.4973H97.6566C97.7994 16.0357 98.2972 15.7716 99.0157 15.7716C99.8953 15.7716 100.351 16.161 100.351 16.8506V17.4142L98.5843 17.5161ZM100.35 18.3613V18.9072C100.322 19.3233 100.127 19.7102 99.8084 19.9793C99.4901 20.2484 99.0764 20.3766 98.662 20.3345C97.9619 20.3345 97.4528 19.9926 97.4528 19.4049C97.4528 18.8293 97.8601 18.5235 98.7581 18.4633L100.35 18.3613Z" fill="white"/>
<path fill-rule="evenodd" clip-rule="evenodd" d="M106.03 14.6742C104.383 14.6742 103.323 15.9811 103.323 18.0443C103.323 20.1124 104.371 21.4194 106.03 21.4193C106.871 21.4503 107.66 21.0115 108.078 20.2801H108.18V21.3117H109.413V12.2336H108.126V15.8197H108.03C107.641 15.0821 106.862 14.6358 106.03 14.6742ZM106.395 20.2624C105.305 20.2624 104.653 19.4291 104.653 18.0442H104.653C104.653 16.6707 105.312 15.8317 106.395 15.8317C107.473 15.8317 108.15 16.6891 108.15 18.0499C108.15 19.4171 107.48 20.2624 106.395 20.2624Z" fill="white"/>
<path fill-rule="evenodd" clip-rule="evenodd" d="M116.184 15.1214C115.186 15.7413 114.626 16.8739 114.737 18.0442C114.624 19.2158 115.184 20.3506 116.182 20.9718C117.181 21.5931 118.445 21.5931 119.443 20.9718C120.442 20.3506 121.002 19.2158 120.888 18.0442C121 16.8739 120.439 15.7413 119.442 15.1214C118.444 14.5015 117.182 14.5015 116.184 15.1214ZM117.815 15.8013C118.929 15.8013 119.564 16.629 119.564 18.0443C119.564 19.4652 118.929 20.2922 117.815 20.2922C116.696 20.2922 116.067 19.4709 116.067 18.0443C116.067 16.629 116.696 15.8013 117.815 15.8013Z" fill="white"/>
<path d="M122.615 14.7825H123.853V15.8197H123.95C124.284 15.0561 125.065 14.5889 125.896 14.6565C126.538 14.6081 127.168 14.855 127.607 15.3274C128.046 15.7998 128.247 16.4465 128.153 17.0849V21.3117H126.866V17.4085C126.866 16.3593 126.41 15.8375 125.459 15.8375C125.023 15.8171 124.6 15.9884 124.3 16.3065C124.001 16.6245 123.855 17.0575 123.901 17.4921V21.3117H122.615V14.7825Z" fill="white"/>
<path d="M135.425 13.157V14.8123H136.837V15.8977H135.425V19.255C135.425 19.939 135.706 20.2385 136.347 20.2385C136.511 20.2379 136.674 20.228 136.837 20.2087V21.282C136.606 21.3234 136.372 21.3455 136.137 21.3479C134.706 21.3479 134.136 20.8438 134.136 19.585V15.8976H133.101V14.8122H134.136V13.157H135.425Z" fill="white"/>
<path d="M138.595 12.2336H139.871V15.8317H139.973C140.323 15.0614 141.118 14.5936 141.961 14.6621C142.6 14.6273 143.221 14.8796 143.656 15.3503C144.09 15.821 144.292 16.4611 144.207 17.0962V21.3117H142.918V17.4141C142.918 16.3712 142.433 15.843 141.524 15.843C141.076 15.8063 140.635 15.9693 140.319 16.2884C140.002 16.6075 139.842 17.0503 139.882 17.4984V21.3117H138.595L138.595 12.2336Z" fill="white"/>
<path fill-rule="evenodd" clip-rule="evenodd" d="M148.885 21.4379C150.159 21.5763 151.35 20.7805 151.711 19.5489L150.472 19.5489C150.163 20.1034 149.55 20.4161 148.92 20.3404C148.435 20.3458 147.969 20.1459 147.639 19.7898C147.308 19.4337 147.143 18.9544 147.184 18.4699V18.3977H151.788V17.9481C151.788 15.8978 150.694 14.6566 148.879 14.6566C148.008 14.6492 147.175 15.0208 146.599 15.6753C146.022 16.3297 145.757 17.2026 145.873 18.0678C145.754 18.9305 146.02 19.802 146.6 20.451C147.18 21.1 148.015 21.4609 148.885 21.4379ZM150.477 17.4445H147.184C147.178 16.9942 147.354 16.5607 147.672 16.2423C147.99 15.9238 148.423 15.7474 148.872 15.753C149.316 15.7429 149.743 15.9207 150.049 16.2429C150.355 16.565 150.51 17.0014 150.477 17.4445Z" fill="white"/>
</svg>
