<svg width="174" height="58" viewBox="0 0 174 58" fill="none" xmlns="http://www.w3.org/2000/svg">
<path d="M167.508 57.9998H7.32293C3.79886 57.9998 0.915527 54.7373 0.915527 50.7498V7.24998C0.915527 3.26249 3.79886 0 7.32293 0H167.508C171.032 0 173.916 3.26249 173.916 7.24998V50.7498C173.916 54.7373 171.032 57.9998 167.508 57.9998Z" fill="black"/>
<path d="M59.5872 14.8623C59.5872 16.0803 59.2251 17.0518 58.5011 17.7623C57.6901 18.6178 56.6185 19.0528 55.3151 19.0528C54.0552 19.0528 52.9981 18.6178 52.1147 17.7478C51.2313 16.8778 50.7969 15.7903 50.7969 14.5143C50.7969 13.2238 51.2313 12.1508 52.1147 11.2808C52.9981 10.4108 54.0552 9.97583 55.3151 9.97583C55.9378 9.97583 56.5316 10.0918 57.0964 10.3383C57.6611 10.5848 58.1101 10.9038 58.4576 11.3098L57.6901 12.0783C57.1108 11.3968 56.3288 11.0488 55.3151 11.0488C54.4028 11.0488 53.6063 11.3678 52.9401 12.0203C52.274 12.6583 51.9409 13.4993 51.9409 14.5288C51.9409 15.5583 52.274 16.3993 52.9401 17.0373C53.6063 17.6753 54.4028 18.0088 55.3151 18.0088C56.2854 18.0088 57.0964 17.6898 57.748 17.0373C58.168 16.6168 58.4142 16.0223 58.4721 15.2683H55.3151V14.2243H59.5293C59.5582 14.4273 59.5872 14.6448 59.5872 14.8623Z" fill="white" stroke="white" stroke-width="0.604167"/>
<path d="M66.263 11.2229H62.3095V13.9779H65.872V15.0219H62.3095V17.7769H66.263V18.8499H61.1945V10.1499H66.263V11.2229Z" fill="white" stroke="white" stroke-width="0.604167"/>
<path d="M70.9697 18.8499H69.8546V11.2229H67.4217V10.1499H73.3881V11.2229H70.9552V18.8499H70.9697Z" fill="white" stroke="white" stroke-width="0.604167"/>
<path d="M77.7181 18.8499V10.1499H78.8331V18.8499H77.7181Z" fill="white" stroke="white" stroke-width="0.604167"/>
<path d="M83.7858 18.8499H82.6708V11.2229H80.2379V10.1499H86.2043V11.2229H83.7714V18.8499H83.7858Z" fill="white" stroke="white" stroke-width="0.604167"/>
<path fill-rule="evenodd" clip-rule="evenodd" d="M94.3282 19.0528C95.6026 19.0528 96.6598 18.6178 97.5142 17.7333C98.3686 16.8488 98.7886 15.7758 98.803 14.5143C98.803 13.2528 98.3686 12.1798 97.5142 11.2953C96.6453 10.4108 95.5881 9.97583 94.3282 9.97583C93.0539 9.97583 91.9967 10.4108 91.1423 11.2953C90.2879 12.1653 89.8679 13.2383 89.8679 14.5143C89.8679 15.7758 90.2879 16.8488 91.1423 17.7333C91.9967 18.6178 93.0539 19.0528 94.3282 19.0528ZM94.3282 17.9797C93.4014 17.9797 92.6049 17.6607 91.9678 17.0082C91.3306 16.3557 90.9975 15.5292 90.9975 14.5142C90.9975 13.4992 91.3306 12.6728 91.9678 12.0203C92.6049 11.3678 93.4014 11.0488 94.3282 11.0488C95.2551 11.0488 96.0515 11.3678 96.6887 12.0203C97.3404 12.6728 97.659 13.4992 97.659 14.5142C97.659 15.5292 97.3259 16.3557 96.6887 17.0082C96.0515 17.6607 95.2551 17.9797 94.3282 17.9797Z" fill="white"/>
<path d="M97.5142 17.7333L97.7314 17.9432L97.5142 17.7333ZM98.803 14.5143L99.1051 14.5178V14.5143H98.803ZM97.5142 11.2953L97.7315 11.0854L97.7297 11.0836L97.5142 11.2953ZM91.1423 11.2953L91.3578 11.507L91.3596 11.5052L91.1423 11.2953ZM91.1423 17.7333L91.3596 17.5234L91.1423 17.7333ZM91.9678 17.0082L91.7516 17.2193L91.9678 17.0082ZM91.9678 12.0203L91.7516 11.8092V11.8092L91.9678 12.0203ZM96.6887 12.0203L96.4726 12.2313L96.475 12.2337L96.6887 12.0203ZM96.6887 17.0082L96.4726 16.7972L96.6887 17.0082ZM97.2969 17.5234C96.5022 18.3461 95.5248 18.7507 94.3282 18.7507V19.3549C95.6804 19.3549 96.8173 18.8895 97.7314 17.9432L97.2969 17.5234ZM98.501 14.5108C98.4873 15.7 98.0945 16.6977 97.2969 17.5234L97.7314 17.9432C98.6427 16.9999 99.0898 15.8516 99.1051 14.5178L98.501 14.5108ZM97.2969 11.5052C98.0962 12.3327 98.501 13.3302 98.501 14.5143H99.1051C99.1051 13.1755 98.6409 12.027 97.7314 11.0854L97.2969 11.5052ZM94.3282 10.2779C95.5093 10.2779 96.4881 10.6819 97.2987 11.507L97.7297 11.0836C96.8024 10.1397 95.667 9.67375 94.3282 9.67375V10.2779ZM91.3596 11.5052C92.1543 10.6825 93.1317 10.2779 94.3282 10.2779V9.67375C92.976 9.67375 91.8391 10.1391 90.925 11.0854L91.3596 11.5052ZM90.17 14.5143C90.17 13.3121 90.5625 12.3168 91.3578 11.507L90.9268 11.0837C90.0132 12.0139 89.5658 13.1645 89.5658 14.5143H90.17ZM91.3596 17.5234C90.562 16.6977 90.17 15.701 90.17 14.5143H89.5658C89.5658 15.8506 90.0138 16.9999 90.925 17.9432L91.3596 17.5234ZM94.3282 18.7507C93.1317 18.7507 92.1543 18.3461 91.3596 17.5234L90.925 17.9432C91.8391 18.8895 92.976 19.3549 94.3282 19.3549V18.7507ZM91.7516 17.2193C92.4488 17.9333 93.3247 18.2818 94.3282 18.2818V17.6777C93.4781 17.6777 92.761 17.3882 92.1839 16.7972L91.7516 17.2193ZM90.6954 14.5142C90.6954 15.6025 91.0555 16.5065 91.7516 17.2193L92.1839 16.7972C91.6056 16.205 91.2996 15.456 91.2996 14.5142H90.6954ZM91.7516 11.8092C91.0555 12.522 90.6954 13.426 90.6954 14.5142H91.2996C91.2996 13.5725 91.6056 12.8235 92.1839 12.2313L91.7516 11.8092ZM94.3282 10.7467C93.3247 10.7467 92.4488 11.0952 91.7516 11.8092L92.1839 12.2313C92.761 11.6403 93.4781 11.3508 94.3282 11.3508V10.7467ZM96.9049 11.8092C96.2076 11.0952 95.3317 10.7467 94.3282 10.7467V11.3508C95.1784 11.3508 95.8955 11.6403 96.4726 12.2313L96.9049 11.8092ZM97.9611 14.5142C97.9611 13.4291 97.6174 12.5226 96.9025 11.8068L96.475 12.2337C97.0635 12.8229 97.3569 13.5694 97.3569 14.5142H97.9611ZM96.9049 17.2193C97.601 16.5065 97.9611 15.6025 97.9611 14.5142H97.3569C97.3569 15.456 97.0509 16.205 96.4726 16.7972L96.9049 17.2193ZM94.3282 18.2818C95.3317 18.2818 96.2076 17.9333 96.9049 17.2193L96.4726 16.7972C95.8955 17.3882 95.1784 17.6777 94.3282 17.6777V18.2818Z" fill="white"/>
<path d="M100.353 18.8499V10.1499H101.714L105.943 16.9214H105.986L105.943 15.2394V10.1499H107.058V18.8499H105.899L101.482 11.7594H101.439L101.482 13.4414V18.8644H100.353V18.8499Z" fill="white" stroke="white" stroke-width="0.604167"/>
<path fill-rule="evenodd" clip-rule="evenodd" d="M59.2506 33.7503V36.1318H64.9908C64.8181 37.4755 64.3663 38.4733 63.6886 39.1519C62.8515 39.99 61.5493 40.9081 59.2639 40.9081C55.7294 40.9081 52.9656 38.0609 52.9656 34.5219C52.9656 30.9829 55.7294 28.1358 59.2639 28.1358C61.164 28.1358 62.5592 28.8808 63.5823 29.852L65.2699 28.1624C63.8348 26.792 61.9347 25.741 59.2506 25.741C54.4139 25.741 50.3479 29.6791 50.3479 34.5352C50.3479 39.378 54.4139 43.3295 59.2506 43.3295C61.8682 43.3295 63.8348 42.478 65.3762 40.8681C66.9574 39.2849 67.449 37.0498 67.449 35.2537C67.449 34.6949 67.4092 34.176 67.3161 33.7503H59.2506ZM73.973 32.0075C70.8504 32.0075 68.2992 34.389 68.2992 37.6619C68.2992 40.9215 70.8504 43.3163 73.973 43.3163C77.0956 43.3163 79.6468 40.9215 79.6468 37.6619C79.6468 34.3757 77.0956 32.0075 73.973 32.0075ZM80.6833 37.6619C80.6833 34.389 83.2345 32.0075 86.3571 32.0075C89.4797 32.0075 92.0176 34.3757 92.0309 37.6619C92.0309 40.9215 89.4797 43.3163 86.3571 43.3163C83.2345 43.3163 80.6833 40.9215 80.6833 37.6619ZM83.1681 37.6618C83.1681 39.684 84.6431 41.0943 86.3572 41.0943C88.058 41.0943 89.5462 39.6707 89.5462 37.6618C89.5462 35.6262 88.0713 34.2292 86.3572 34.2292C84.6431 34.2292 83.1681 35.6262 83.1681 37.6618ZM70.7843 37.6618C70.7843 39.684 72.2592 41.0943 73.9733 41.0943C75.6874 41.0943 77.1623 39.6707 77.1623 37.6618C77.1623 35.6262 75.6874 34.2292 73.9733 34.2292C72.2592 34.2292 70.7843 35.6262 70.7843 37.6618ZM114.62 31.9941C117.556 31.9941 118.991 34.3356 119.456 35.5996L119.722 36.2382L112.161 39.3647C112.733 40.4956 113.636 41.081 114.899 41.081C116.161 41.081 117.038 40.4557 117.676 39.5111L119.603 40.8016C118.991 41.7196 117.49 43.3029 114.899 43.3029C111.683 43.3029 109.291 40.8149 109.291 37.6485C109.291 34.2824 111.71 31.9941 114.62 31.9941ZM111.75 37.4885C111.683 35.3066 113.437 34.189 114.7 34.189C115.683 34.189 116.52 34.6813 116.799 35.3864L111.75 37.4885ZM108.096 42.9704H105.611V26.3398H108.096V42.9704ZM101.545 33.2714H101.465C100.907 32.6062 99.8441 32.0075 98.4888 32.0075C95.6585 32.0075 93.0674 34.4954 93.0674 37.6885C93.0674 40.8549 95.6585 43.3296 98.4888 43.3296C99.8308 43.3296 100.907 42.7309 101.465 42.039H101.545V42.8506C101.545 45.0192 100.389 46.1767 98.5286 46.1767C97.0138 46.1767 96.0704 45.0858 95.6851 44.1677L93.5192 45.0724C94.1437 46.5759 95.7914 48.4119 98.5286 48.4119C101.439 48.4119 103.897 46.6956 103.897 42.518V32.3401H101.545V33.2714ZM95.5388 37.6882C95.5388 39.6573 96.9739 41.0941 98.688 41.0941C100.389 41.0941 101.718 39.6573 101.704 37.6882C101.704 35.7058 100.376 34.2423 98.688 34.2423C96.9739 34.2423 95.5388 35.6925 95.5388 37.6882ZM131.097 26.3398H125.157V42.9704H127.642V36.6641H131.11C133.86 36.6641 136.558 34.6684 136.558 31.502C136.558 28.3355 133.834 26.3398 131.097 26.3398ZM127.628 34.3622H131.15C133.01 34.3622 134.06 32.7923 134.06 31.5018C134.06 30.1979 133.01 28.6546 131.15 28.6546H127.628V34.3622ZM146.47 31.9673C144.676 31.9673 142.816 32.7655 142.045 34.5084L144.251 35.4264C144.716 34.5084 145.593 34.2024 146.51 34.2024C147.786 34.2024 149.101 34.9741 149.114 36.3444V36.5174C148.663 36.2646 147.706 35.8788 146.523 35.8788C144.145 35.8788 141.74 37.1826 141.74 39.6173C141.74 41.8392 143.68 43.2761 145.859 43.2761C147.52 43.2761 148.45 42.531 149.021 41.6529H149.101V42.9434H151.493V36.5706C151.519 33.617 149.314 31.9673 146.47 31.9673ZM144.238 39.6709C144.238 40.6687 145.367 41.0811 146.178 41.0811C147.613 41.0811 148.928 39.9902 149.127 38.4602C148.476 38.1408 147.958 37.9014 146.869 37.9014C145.646 37.9014 144.238 38.3936 144.238 39.6709ZM160.236 32.3399L157.392 39.5509H157.313L154.363 32.3399H151.692L156.117 42.4247L153.592 48.0259H156.183L163 32.3399H160.236ZM140.398 42.9704H137.913V26.3398H140.398V42.9704Z" fill="white"/>
<path d="M15.8177 14.5668C15.4822 14.9259 15.2855 15.482 15.2855 16.1886V41.8136C15.2855 42.5318 15.4822 43.0879 15.8177 43.4354L15.8987 43.5165L30.2337 29.1633V28.9895V28.8158L15.9103 14.4857L15.8177 14.5668Z" fill="url(#paint0_linear_1_595)"/>
<path d="M35.0234 33.9594L30.2451 29.175V29.0013V28.8275L35.0234 24.0431L35.1275 24.101L40.7851 27.3215C42.4049 28.2367 42.4049 29.7427 40.7851 30.6694L35.1275 33.8899L35.0234 33.9594Z" fill="url(#paint1_linear_1_595)"/>
<path d="M35.1276 33.9015L30.2452 29.0128L15.8176 43.4471C16.3498 44.0148 17.2291 44.0843 18.2241 43.5166L35.1276 33.9015Z" fill="url(#paint2_linear_1_595)"/>
<path d="M35.1276 24.1124L18.2241 14.4973C17.2291 13.9297 16.3498 13.9992 15.8176 14.5668L30.2336 29.0011L35.1276 24.1124Z" fill="url(#paint3_linear_1_595)"/>
<path opacity="0.2" d="M35.0235 33.7972L18.2241 43.3545C17.287 43.8873 16.4424 43.8526 15.9102 43.366L15.8292 43.4471L15.9102 43.5282C16.4539 44.0148 17.287 44.0495 18.2241 43.5166L35.1276 33.9015L35.0235 33.7972Z" fill="black"/>
<path opacity="0.12" d="M15.8175 43.2734C15.482 42.9143 15.2853 42.3583 15.2853 41.6516V41.8254C15.2853 42.5436 15.482 43.0997 15.8175 43.4472L15.8985 43.3661L15.8175 43.2734Z" fill="black"/>
<path opacity="0.12" d="M40.7853 30.5073L35.012 33.7857L35.1161 33.89L40.7737 30.6695C41.5836 30.2061 41.9886 29.6037 41.9886 29.0013C41.9307 29.5574 41.5258 30.0903 40.7853 30.5073Z" fill="black"/>
<path opacity="0.25" d="M18.2243 14.6711L40.7854 27.5067C41.5143 27.9238 41.9308 28.4567 42.0002 29.0127C42.0002 28.4103 41.5953 27.7964 40.7854 27.3446L18.2243 14.5089C16.6045 13.5937 15.2855 14.3583 15.2855 16.2118V16.3856C15.2855 14.5089 16.6161 13.7443 18.2243 14.6711Z" fill="white"/>
<defs>
<linearGradient id="paint0_linear_1_595" x1="23.966" y1="-2.92893" x2="1.00605" y2="3.16619" gradientUnits="userSpaceOnUse">
<stop stop-color="#00A0FF"/>
<stop offset="0.00657445" stop-color="#00A1FF"/>
<stop offset="0.2601" stop-color="#00BEFF"/>
<stop offset="0.5122" stop-color="#00D2FF"/>
<stop offset="0.7604" stop-color="#00DFFF"/>
<stop offset="1" stop-color="#00E3FF"/>
</linearGradient>
<linearGradient id="paint1_linear_1_595" x1="42.895" y1="17.1986" x2="14.8997" y2="17.1986" gradientUnits="userSpaceOnUse">
<stop stop-color="#FFE000"/>
<stop offset="0.4087" stop-color="#FFBD00"/>
<stop offset="0.7754" stop-color="#FFA500"/>
<stop offset="1" stop-color="#FF9C00"/>
</linearGradient>
<linearGradient id="paint2_linear_1_595" x1="15.3857" y1="21.5089" x2="-3.06694" y2="52.5556" gradientUnits="userSpaceOnUse">
<stop stop-color="#FF3A44"/>
<stop offset="1" stop-color="#C31162"/>
</linearGradient>
<linearGradient id="paint3_linear_1_595" x1="4.56178" y1="10.5753" x2="12.8017" y2="24.439" gradientUnits="userSpaceOnUse">
<stop stop-color="#32A071"/>
<stop offset="0.0685" stop-color="#2DA771"/>
<stop offset="0.4762" stop-color="#15CF74"/>
<stop offset="0.8009" stop-color="#06E775"/>
<stop offset="1" stop-color="#00F076"/>
</linearGradient>
</defs>
</svg>
