<svg width="151" height="61" viewBox="0 0 151 61" fill="none" xmlns="http://www.w3.org/2000/svg">
<path d="M75.9412 6.63166C76.9558 6.6784 77.925 7.0602 78.6926 7.71557C79.7386 8.6911 80.0129 10.3178 79.5178 11.6192C77.5931 15.5221 73.0159 18.129 69.8882 18.9914C68.0169 19.425 65.6514 19.425 63.9452 18.7746C63.1192 19.2624 62.4224 20.8388 61.4138 20.1837C59.954 19.0606 61.2177 17.3027 60.375 16.0554C60.2012 15.7986 59.7635 15.7797 59.5434 15.3595C58.3873 12.8657 59.8185 10.4803 61.4138 8.58349C64.0736 5.66006 71.7044 2.40282 75.9412 6.63166ZM67.0817 8.58271C65.5956 8.85369 63.9173 9.49068 63.01 10.5345C62.1019 11.5776 61.5247 12.5948 62.0748 13.6787C64.001 12.2696 64.9362 10.3178 67.0825 9.12545C67.0817 8.90788 67.4118 8.74529 67.0817 8.58271ZM76.052 9.12545C72.2545 8.79949 69.3931 11.6192 66.6966 14.329C66.5316 14.7626 65.5414 15.2504 66.3116 15.7381C69.944 16.0633 73.4106 15.0344 76.052 12.6482C76.823 11.9436 77.3715 11.0223 76.988 10.046C76.823 9.66741 76.4347 9.28804 76.052 9.12545ZM108.957 25.2797C110.718 29.5085 112.203 36.1754 108.957 40.2417C108.077 41.2172 106.536 42.1165 105.546 41.3798C101.914 38.5074 100.374 34.387 98.1176 30.7001C97.7876 30.5375 97.7876 30.9718 97.6225 31.1344C96.7973 34.8747 98.3377 39.7539 95.7521 42.6805C94.7619 42.8431 93.8354 42.3412 93.4958 41.3798C92.2297 37.5311 93.5492 33.519 93.8793 29.6704C94.6503 27.7185 94.9803 25.4423 96.6865 23.9782C99.438 25.0621 100.758 28.0987 102.353 30.3215C103.51 32.0016 104.444 33.8992 105.764 35.4167C106.92 34.9289 106.351 33.4413 106.315 32.5435C105.874 29.02 104.883 25.7675 103.947 22.4066C103.894 21.5394 103.399 20.0753 104.332 19.5334C106.812 20.6181 107.856 23.1653 108.957 25.2797ZM92.3389 23.9782C92.3389 24.7919 91.6788 25.8083 91.1271 25.9301C85.845 26.743 79.9571 26.2552 75.0051 27.8811C74.8401 28.4773 75.5553 28.5856 75.9404 28.7482C80.1763 29.3986 84.6348 29.5612 88.7623 30.5917C90.9445 31.1376 91.7346 33.6824 91.8996 35.796C92.0009 37.4628 91.3503 39.4821 89.6983 40.621C85.6274 43.169 79.4094 43.0598 75.281 40.7302C73.7032 39.8584 72.1995 38.454 72.0895 36.7189C72.099 35.3413 72.6954 34.2566 73.6856 33.7374C77.6481 32.1649 82.5451 33.0336 85.9575 35.0381C86.1759 36.1228 84.9848 36.0639 84.4147 36.448C80.6172 38.6166 77.7566 34.0099 74.235 35.6884C73.7399 36.0136 73.3819 36.9208 73.9599 37.2067C78.3067 39.1043 83.1494 37.7487 87.4412 36.5564C87.9363 36.3938 88.5423 35.906 88.5965 35.4182C88.4314 33.6832 86.451 33.3046 85.1849 32.8168C81.4432 31.8955 77.3165 31.8955 73.299 31.5161C72.5288 31.3536 71.5473 30.825 71.3185 30.2155C70.8784 28.9148 70.8784 27.1255 71.8686 26.0416C76.9856 21.596 84.744 21.9761 91.2371 23.1684C91.678 23.3279 92.1731 23.4905 92.3389 23.9782ZM68.2928 26.0385C68.7879 31.242 69.063 36.0678 68.953 41.5424C68.8429 42.2461 68.0177 42.4095 67.4676 42.6805C66.5874 42.8431 65.4497 42.6585 65.1013 42.1927C63.836 40.1859 64.2761 37.4769 64.1661 35.0373C64.3311 31.1894 64.2761 27.0148 65.3771 23.4363C65.5876 22.9163 66.2023 22.4607 66.6974 22.7851C68.0177 23.4363 68.2378 24.7378 68.2928 26.0385ZM129.429 25.2797C129.693 25.718 129.97 26.395 129.429 26.6888C126.952 27.7727 123.596 27.285 120.734 27.6101C119.964 28.2605 119.358 29.3444 119.632 30.3207C119.909 30.4833 120.155 30.7307 120.459 30.6993C122.219 30.8085 124.861 29.8864 126.018 31.5122C126.3 31.9961 125.98 33.8026 125.193 33.8434C123.046 34.116 119.515 33.5779 118.478 34.116C117.158 34.9831 117.267 36.6632 116.772 38.0196C117.708 38.6158 118.688 38.0055 119.797 37.8563C121.835 37.5311 124.092 36.9349 126.126 37.3685C126.511 38.0731 127.062 38.8326 126.676 39.6997C123.207 42.4103 118.733 45.1884 113.966 43.2232C112.177 42.4331 111.38 39.7539 111.986 37.4785C112.37 35.8518 114.075 34.2801 113.031 32.5451C112.866 31.7856 113.307 31.136 113.967 30.9734C115.782 30.9734 115.396 28.7506 116.332 27.7201C115.287 26.582 112.647 26.6362 112.922 24.3592C114.188 23.7088 115.729 23.9256 117.158 23.7088C120.404 23.0577 124.036 22.6783 127.34 23.0577C127.998 23.1881 128.879 24.4668 129.429 25.2797ZM50.849 12.9199C55.9269 17.009 62.5149 23.979 61.6897 32.0016C60.6987 38.3448 53.8755 43.1148 48.0976 44.6331C42.4847 46.259 35.4415 46.0964 29.7178 44.7957C29.3327 45.8262 28.9476 47.0719 27.7373 47.5063C26.9671 47.7772 25.9761 47.6146 25.371 47.1269C23.6656 45.5544 25.0409 42.5187 22.5645 41.5439C17.7218 39.5379 12.494 35.58 10.0184 30.7016C9.68837 29.7261 10.0735 28.7506 10.6786 27.9919C14.4761 25.0103 19.263 23.818 24.0507 22.8959C24.3257 23.0043 24.2157 22.6249 24.4357 22.5165C24.7108 19.264 24.8208 15.9565 25.8661 13.0291C26.1045 12.6183 26.6913 12.4872 27.0772 12.7581C30.1036 15.0344 28.6725 19.3182 29.9936 22.4073C35.7715 22.6783 41.5495 22.9493 46.1163 26.1484C47.6575 27.3949 48.033 29.7756 47.5467 31.136C47.0611 32.494 45.4562 33.4672 43.97 33.574C42.979 33.574 41.1086 33.6691 41.2186 32.9245C41.3286 32.1791 44.5847 30.9593 43.5849 29.9421C42.1474 28.4804 34.9551 27.6109 30.4975 27.069C29.9474 26.9606 29.4427 27.1231 29.4427 27.7193C29.3327 31.839 29.0026 36.3922 29.7178 40.3508C29.7728 40.6226 30.1029 40.9478 30.3787 41.0004C38.2471 42.2477 46.5564 41.5424 52.7194 37.0975C55.5809 34.8221 56.5169 31.6214 56.021 28.0987C53.5446 18.2869 43.1448 12.3772 34.6155 8.58271C26.307 5.005 17.1167 3.16156 7.26701 3.65011C5.69875 3.76321 3.21361 4.29653 3.19527 4.8432C3.17694 5.38987 6.01049 5.21785 5.67085 6.25229C5.332 7.28593 2.45221 6.6725 1.59911 6.41487C0.746015 6.15725 0.828933 4.95081 1.04898 4.19206C3.19527 0.451772 9.18448 0.149376 11.8897 0.0182066C26.8563 -0.361949 41.3294 5.2532 50.849 12.9199ZM23.8856 27.4483C20.0882 27.5025 16.0714 27.8819 12.5498 29.1826C11.8347 29.4536 10.9537 30.2123 11.5038 31.1344C12.9341 33.0313 14.9799 34.5888 16.8966 35.6877C18.8133 36.7849 21.3542 38.1814 23.6656 38.5074C24.2157 34.9831 24.2157 31.5138 24.1607 27.8819C23.9398 27.7735 24.1599 27.5567 23.8856 27.4483ZM137.626 22.5149C137.461 27.2308 133.003 30.1589 133.003 34.8747C133.168 35.0373 133.28 35.2541 133.498 35.1473C137.076 31.2978 140.597 25.8225 145.825 24.1966C147.203 24.0882 148.447 25.2671 148.962 26.1484C150.778 29.7261 150.34 34.7679 147.808 38.0204C145.195 41.2133 140.653 44.4171 135.482 43.8744C133.337 49.0787 131.848 54.5541 131.023 60.2462C130.583 61.3843 129.539 60.3546 128.879 60.1378C124.422 56.6685 128.081 47.4843 128.383 46.3124C128.686 45.1436 129.878 42.3867 130.751 40.0783C128.659 36.393 129.98 31.9466 131.685 28.5315C133.005 26.2545 134.823 23.9774 136.969 22.2432C137.241 22.244 137.461 22.2982 137.626 22.5149ZM146.487 28.3697C145.827 28.2613 145.551 29.1292 145.002 29.2918C142.471 32.1107 139.939 34.9297 138.673 38.2906C140.38 38.5074 141.81 37.4235 143.297 36.8273C145.827 35.2549 147.423 32.6543 147.258 29.6719C147.148 29.1826 146.707 28.8032 146.487 28.3697Z" fill="#C6C6C6" fill-opacity="0.3"/>
</svg>
