<svg version="1.2" xmlns="http://www.w3.org/2000/svg" viewBox="0 0 367 132" width="100" height="36">
	<title>unity</title>
	<style>
		.s0 { fill: #484c53 } 
	</style>
	<path fill-rule="evenodd" class="s0" d="m133.3 52.6l-8 13.5 8 13.4-14.3 51.7-53.1-13.9-7.9-13.6-16 0.2-39-38 39-37.9 16 0.1 7.9-13.5 53.1-13.8zm-33.2 59l-23.4-39.3h-46.8l29.4 29.1zm-70.3-52.2h46.8l23.4-39.3-40.7 10.2zm92.9 6.4l-11.3-39.3-23.4 39.3 23.4 39.4zm135-7.3v34.1h-12.7v-32.1c0-6.1-4.3-9.6-10.1-9.6-6.1 0-10.6 4.9-10.6 12v29.5h-12.7v-52h12.5v7h0.2c3.6-5.5 8.4-8.5 15.5-8.5 10.8 0 18 8.2 17.9 19.6zm-65.3 12v-30.1h12.7v52.2h-12.2v-6.2h-0.4c-3.4 4.8-7.5 7.6-14.8 7.6-11.7 0-18.2-7.4-18.2-18.8v-34.8h12.8v32.4c0 6.1 3.7 9.4 9.6 9.4 6.4 0 10.4-4.8 10.4-11.7zm72.1-30.1h12.7v52h-12.7zm0-16.2h12.7v10.5h-12.7zm84.9 16.3h13.6l-18.3 53.4c-4 11.5-7.7 15.7-18.3 15.7h-8.1v-10.9h4.9c5.4 0 7.7-2.8 7.7-7.1 0-2.9-1-6.2-4-14.1l-14-37.1h13.7l8.5 23.5c1.7 4.8 3.3 11.4 3.3 11.4h0.4c0 0 1.3-6.6 3-11.4l7.6-23.5zm-43.2 41.7h3.2v10.1c0 0-1.4 0.3-7 0.3-6.7 0-14.1-2.7-14.1-12.5v-30.6h-7.2v-9.1h7.2v-16.2h12.7v16.3h8.2v9.1h-8.2v27.6c0 3.8 2.2 5.2 5.2 5z"/>
</svg>