<svg version="1.2" xmlns="http://www.w3.org/2000/svg" viewBox="0 0 128 47" width="100" height="37">
	<title>Photon Engine</title>
	<style>
		.s0 { fill: #484c53 } 
	</style>
	<path fill-rule="evenodd" class="s0" d="m115.1 16.3c1.7-0.7 4.4-1 6.6-1 4 0 6.3 1.6 6.3 5.8v9.3h-3.3v-9.2c0-2.2-1.2-2.8-3-2.8q-0.4 0-0.8 0-0.4 0-0.9 0.1-0.4 0-0.8 0.1-0.4 0.1-0.8 0.2v11.6h-3.3zm-16.3 6.7c0-4.6 2.3-7.7 6.9-7.7 4.8 0 6.9 2.9 6.9 7.7 0 4.7-2.3 7.8-6.9 7.8-4.8 0-6.9-2.9-6.9-7.8zm6.9-4.5c-2.9 0-3.6 1.7-3.6 4.5 0 2.9 0.7 4.7 3.6 4.7 2.9 0 3.6-1.8 3.6-4.7 0-2.8-0.7-4.5-3.6-4.5zm-17.5-6.8h3.3v3.9h5.4v3.2h-5.4v6.4c0 1.8 0.9 2.4 2.2 2.4q0.4 0 0.8 0 0.5 0 0.9-0.1 0.4-0.1 0.8-0.2 0.3-0.2 0.7-0.3l0.5 3.1q-0.4 0.2-0.9 0.3-0.4 0.1-0.9 0.2-0.4 0.1-0.9 0.1-0.5 0.1-1 0c-3.2 0-5.5-1.3-5.5-5.5zm-16.3 11.3c0-4.7 2.3-7.7 6.9-7.7 4.8 0 6.9 2.8 6.9 7.7 0 4.6-2.2 7.7-6.9 7.7-4.8 0-6.9-2.8-6.9-7.7zm6.9-4.6c-2.9 0-3.6 1.8-3.6 4.6 0 2.8 0.6 4.6 3.6 4.6 2.9 0 3.6-1.8 3.6-4.6 0-2.8-0.7-4.6-3.6-4.6zm-22.3-9h3.3v6.3q0.4-0.1 0.8-0.2 0.4-0.1 0.8-0.1 0.5-0.1 0.9-0.1 0.4 0 0.8 0c3.7 0 6.2 1.5 6.2 5.9v9.2h-3.2v-9.2c0-2.2-1.3-2.8-3.1-2.8q-0.4 0-0.8 0-0.4 0-0.8 0.1-0.4 0-0.8 0.1-0.4 0-0.8 0.1v11.7h-3.3zm-15.5 27.3v-20.5q0.6-0.3 1.3-0.4 0.7-0.2 1.4-0.3 0.7-0.2 1.4-0.2 0.6-0.1 1.3-0.1c5.2 0 7.5 2.7 7.5 7.5 0 5.1-2.6 8-7.1 8q-1.3 0-2.5-0.4v6.4zm9.6-13.8c0-3.3-1-4.5-4-4.5q-0.3-0.1-0.6 0-0.3 0-0.5 0-0.3 0.1-0.6 0.1-0.3 0.1-0.6 0.2v8.4q0.3 0.1 0.6 0.2 0.2 0.1 0.5 0.2 0.3 0 0.6 0.1 0.3 0 0.6 0c3.2 0 4-1.6 4-4.7z"/>
	<path fill-rule="evenodd" class="s0" d="m10.3 29.6q0.1 0.1 0.2 0.3l0.3 0.2-4.9 6q-0.1-0.1-0.2-0.2-0.1-0.1-0.2-0.2-0.1-0.1-0.2-0.2-0.1-0.1-0.2-0.2-0.4-0.4-0.8-0.8l6-4.9zm2 1.7l-3.6 6.8q-0.3-0.1-0.5-0.3-0.3-0.1-0.5-0.3-0.2-0.1-0.4-0.3-0.3-0.2-0.5-0.3l4.9-6q0.3 0.2 0.6 0.4zm-3.2-3.2q0.2 0.3 0.4 0.6l-5.9 4.9q-0.2-0.3-0.4-0.5-0.1-0.2-0.3-0.5-0.1-0.2-0.3-0.4-0.1-0.3-0.3-0.5l6.8-3.7zm4.9 4.1l-2.2 7.3q-0.3-0.1-0.6-0.2-0.2-0.1-0.5-0.2-0.2-0.1-0.5-0.2-0.2-0.1-0.5-0.2l3.6-6.8q0.4 0.1 0.7 0.3zm-5.7-5.8q0.1 0.3 0.3 0.7l-6.8 3.6q-0.2-0.3-0.3-0.5-0.1-0.3-0.2-0.5-0.1-0.3-0.2-0.5-0.1-0.3-0.2-0.6zm7.6 6.3l-0.8 7.6q-0.3 0-0.5-0.1-0.3 0-0.6-0.1-0.3 0-0.5-0.1-0.3-0.1-0.6-0.1l2.3-7.4q0.3 0.1 0.7 0.2zm-8.1-8.1q0.1 0.4 0.2 0.7l-7.4 2.2q-0.1-0.2-0.2-0.5 0-0.3-0.1-0.5 0-0.3-0.1-0.6 0-0.3-0.1-0.5zm-0.1-1.9v0.7l-7.6 0.8q-0.1-0.3-0.1-0.6 0-0.3 0-0.5 0-0.3 0-0.6 0-0.3 0.1-0.6zm10 10.1l0.8 7.7q-1.1 0.1-2.2 0l0.7-7.7q0.4 0 0.7 0zm1.9-0.2l2.3 7.3q-1.1 0.3-2.2 0.5l-0.8-7.7q0.4 0 0.7-0.1zm-11.7-11.7q-0.1 0.3-0.1 0.7l-7.7-0.8q0-0.2 0.1-0.5 0-0.3 0.1-0.6 0-0.2 0.1-0.5 0.1-0.3 0.1-0.5c0 0 7.4 2.2 7.4 2.2zm13.5 11.1l3.7 6.8q-0.3 0.1-0.6 0.2-0.2 0.1-0.5 0.2-0.2 0.1-0.5 0.2-0.2 0.1-0.5 0.2l-2.3-7.4q0.1 0 0.2 0 0.1-0.1 0.2-0.1 0.1 0 0.2-0.1 0.1 0 0.1 0zm-12.8-13q-0.2 0.4-0.3 0.7l-7.4-2.3q0.4-1 0.9-2c0 0 6.8 3.6 6.8 3.6zm14.5 12l4.9 6q-0.9 0.6-1.9 1.2l-3.6-6.8q0.3-0.2 0.6-0.4zm-13.6-13.5q0 0-0.1 0.1-0.1 0.1-0.1 0.2-0.1 0-0.1 0.1-0.1 0.1-0.1 0.2l-6.8-3.7q0.6-0.9 1.2-1.8zm21 17.2q-0.2 0.2-0.4 0.4-0.2 0.2-0.4 0.4-0.2 0.2-0.4 0.4-0.2 0.2-0.4 0.4l-4.9-6 0.3-0.3 0.2-0.2zm-24.6-24.6l5 5.9-0.3 0.3q-0.2 0.1-0.3 0.3l-5.9-4.9q0.3-0.4 0.7-0.8 0.4-0.5 0.9-0.8zm26.5 21.8q-0.5 1-1.2 1.9l-6-4.9q0.2-0.3 0.4-0.7c0 0 6.8 3.7 6.8 3.7zm-23.8-23.8l3.7 6.8q-0.1 0-0.2 0.1-0.1 0-0.1 0.1-0.1 0-0.2 0.1-0.1 0-0.1 0.1l-4.9-6q0.9-0.6 1.8-1.2zm25.2 20.7q0 0.3-0.1 0.5-0.1 0.3-0.2 0.5-0.2 0.3-0.3 0.5-0.1 0.3-0.2 0.5l-6.8-3.6q0.1-0.3 0.3-0.7zm-22.1-22.1l2.2 7.4q-0.3 0.1-0.7 0.3l-3.6-6.8q0.3-0.2 0.5-0.3 0.3-0.1 0.5-0.2 0.3-0.1 0.6-0.2 0.2-0.1 0.5-0.2zm22.9 18.8q-0.1 0.3-0.1 0.6-0.1 0.2-0.1 0.5-0.1 0.3-0.2 0.6 0 0.2-0.1 0.5l-7.4-2.2q0.1-0.1 0.1-0.2 0-0.1 0-0.2 0-0.1 0.1-0.2 0-0.1 0-0.2zm-19.6-19.5l0.8 7.6q-0.4 0.1-0.7 0.2l-2.3-7.4q0.3 0 0.6-0.1 0.2-0.1 0.5-0.1 0.3-0.1 0.6-0.1 0.2-0.1 0.5-0.1zm19.7 16.1q0.1 1.1 0 2.3l-7.7-0.8v-0.7zm-16.2-16.3l-0.8 7.7h-0.7l-0.8-7.7q0.3 0 0.6 0 0.3 0 0.5 0 0.3 0 0.6 0 0.3 0 0.6 0zm15.7 12.9q0.3 1.1 0.4 2.2l-7.6 0.8q-0.1-0.1-0.1-0.2 0-0.1 0-0.2 0-0.1 0-0.2-0.1-0.1-0.1-0.2zm-12.3-12.3l-2.3 7.3q0 0-0.1 0-0.1 0-0.2 0-0.1-0.1-0.2-0.1-0.1 0-0.2 0l0.8-7.7q1.1 0.2 2.2 0.5zm3.2 1.2l-3.7 6.7q0 0-0.1 0-0.1-0.1-0.2-0.1-0.1-0.1-0.2-0.1-0.1 0-0.2-0.1l2.3-7.3q0.3 0.1 0.5 0.2 0.3 0.1 0.5 0.2 0.3 0.1 0.6 0.2 0.2 0.1 0.5 0.2zm7.9 8q0.5 1 0.8 2l-7.3 2.3q-0.2-0.3-0.3-0.7zm-5.1-6.2l-4.9 6q0 0-0.1-0.1-0.1 0-0.2-0.1-0.1 0-0.1-0.1-0.1-0.1-0.2-0.1l3.7-6.8q0.9 0.6 1.8 1.2zm3.3 3.3q0.6 0.9 1.2 1.8l-6.8 3.7q0-0.1-0.1-0.2 0-0.1-0.1-0.1 0-0.1-0.1-0.2 0-0.1-0.1-0.1l6-4.9zm-2.3-2.5q0.4 0.4 0.8 0.8 0.4 0.4 0.7 0.8l-5.9 4.9q0-0.1-0.1-0.1 0 0 0-0.1-0.1 0-0.1 0 0-0.1-0.1-0.1l-0.2-0.3 4.9-5.9z"/>
</svg>