<svg width="72" height="52" viewBox="0 0 72 52" fill="none" xmlns="http://www.w3.org/2000/svg">
<path fill-rule="evenodd" clip-rule="evenodd" d="M14.3526 26.9572H6.55486V27.8543H8.76132V48.0277C8.76132 48.0277 9.08137 51.0634 6.55486 51.0634C4.02834 51.0634 4.2999 46.8784 4.2999 46.4613V5.1981C4.2999 5.1981 4.43569 1.75021 6.22995 1.75021C8.02421 1.75021 10.2695 6.45893 11.0357 15.5418V17.0936H11.9328V1.29436H11.0357V2.61824C10.9241 2.69098 10.769 2.76372 10.5992 2.76372C10.2307 2.76372 8.66918 0.877319 6.36573 0.877319C4.06228 0.877319 0.798664 2.02662 0.798664 6.7208V44.3955C0.798664 44.3955 0.294331 51.8926 6.55001 51.8926C6.55001 51.8926 8.43641 52.0284 10.4586 50.3311C10.4586 50.3311 11.6079 49.7783 11.6079 51.4804H12.5729V27.8592H14.3429V26.962L14.3526 26.9572Z" fill="#C6C6C6" fill-opacity="0.3"/>
<path fill-rule="evenodd" clip-rule="evenodd" d="M37.4647 1.70154L42.833 50.554V50.5492H44.8503V51.4463H37.0525V50.5492H39.0165L36.9216 31.0208H32.2419L30.4283 48.5221C30.4283 50.0012 31.4176 50.4958 32.1644 50.5443H32.5669V51.4414H27.0483V50.5928V50.5492H27.5429C29.1384 50.36 29.4633 49.1138 29.4633 48.6191C29.4633 48.0711 34.2932 1.70154 34.2932 1.70154H37.4647ZM34.5697 8.9659L32.339 29.9879H36.8246L34.5697 8.9659Z" fill="#C6C6C6" fill-opacity="0.3"/>
<path fill-rule="evenodd" clip-rule="evenodd" d="M57.478 1.69668L65.2225 1.68213C65.2225 1.68213 71.5703 1.71123 71.5703 6.71092V26.7048C71.5703 26.7048 71.4151 31.1808 66.6627 31.1808H63.273V50.617H66.1002V51.5142H57.6138V50.617H59.4081V2.59381H57.478V1.69668ZM65.8674 30.1092C65.8674 30.1092 67.8896 30.0801 67.8896 27.3499H67.8945V5.76057C67.8945 5.76057 67.5599 2.63273 65.2273 2.63273H63.2779V30.1092H65.8674Z" fill="#C6C6C6" fill-opacity="0.3"/>
</svg>
