<svg width="178" height="27" viewBox="0 0 178 27" fill="none" xmlns="http://www.w3.org/2000/svg">
<g clip-path="url(#clip0_1_471)">
<path fill-rule="evenodd" clip-rule="evenodd" d="M17.2808 25.2801H10.8652V17.2221C10.8652 15.5976 10.1488 14.3652 8.86025 14.3193C7.59048 14.2734 6.75511 15.6644 6.75511 17.072V25.2801H0.289307V17.9228C0.289307 15.679 0.924191 13.7854 2.04359 12.3173C3.28412 10.6907 5.5647 9.17464 8.3089 9.01406C11.0134 8.85557 12.9348 9.89618 14.474 11.2162C15.8899 12.4299 17.2808 14.7072 17.2808 16.7216V25.2801ZM83.0394 5.76086C83.0394 4.7849 83.1501 3.77558 82.9392 3.05821C82.674 2.15523 81.849 1.319 81.0847 1.00619C79.1278 0.2054 77.3317 1.47957 76.8242 2.75791C76.5047 3.56078 76.6238 4.76196 76.6238 5.96106C76.6238 12.2047 76.6238 19.3659 76.6238 25.2801H83.0394C83.0394 19.2032 83.0394 12.0608 83.0394 5.76086ZM103.74 12.1171C102.798 13.2787 101.913 14.9094 101.785 16.8217C101.574 19.9769 102.815 22.0289 104.241 23.4783C105.469 24.7253 107.278 25.8223 109.454 25.9807C112.108 26.1726 114.019 25.3093 115.569 24.1289C117.022 23.0216 118.242 21.1698 118.626 19.1741C118.85 18.0146 118.777 15.3203 118.777 15.3203V3.65045C118.777 2.47847 117.741 1.41701 116.672 1.00827C114.623 0.224169 112.175 1.77361 112.28 4.14678C112.338 5.45223 112.311 9.31644 112.311 9.31644C108.443 8.36968 105.407 10.0651 103.74 12.1192V12.1171ZM110.055 13.7187C111.461 13.4768 112.204 15.4016 112.311 16.8718C112.455 18.8425 111.776 21.1051 110.557 21.3262C108.886 21.6265 108.09 19.1178 108.201 17.122C108.278 15.7186 108.821 13.9314 110.055 13.7187ZM58.9368 13.6332C60.0645 11.6667 58.4711 9.59588 57.2264 9.11416C56.8985 8.98695 56.2866 8.84932 55.6726 8.91396C54.0164 9.08914 53.2729 10.3842 52.6151 11.5666C51.9802 12.7073 50.3095 15.6206 50.3095 15.6206V11.9169C50.3095 10.6949 49.2611 8.99529 46.9617 8.98695C45.1322 8.9807 43.8437 10.6052 43.8437 12.2172V25.2801H50.3095V20.175L53.7178 25.2801H58.7593C60.1356 25.2801 60.2776 24.0956 59.7325 23.2656C58.7426 21.7537 56.3221 18.1731 56.3221 18.1731C56.3221 18.1731 57.8069 15.5997 58.9347 13.6332H58.9368ZM37.5282 9.6647C34.1366 8.24456 30.3983 9.47702 28.4059 11.4665C27.0338 12.8366 26.0335 14.6738 25.8998 16.8217C25.7118 19.8351 26.7414 21.8371 28.3558 23.4783C29.6486 24.7921 31.3652 25.816 33.5184 25.9807C35.6152 26.1413 37.1962 25.67 38.5307 24.9297C40.1868 24.0121 41.4044 22.617 42.1395 20.9258C42.4632 20.1813 42.7598 19.3888 42.8412 18.3232H36.3754C36.2271 19.6912 35.6257 21.3762 34.3705 21.3762C33.0966 21.3762 32.4032 19.4681 32.3155 17.8728C32.2466 16.6403 32.5619 15.2681 33.0172 14.5695C33.2803 14.167 33.8045 13.6686 34.3705 13.6686C35.068 13.6686 35.5317 14.2546 35.8241 14.7697C36.1582 15.3578 36.3023 15.9813 36.3754 16.7216H42.8412C42.4214 13.2641 40.3831 10.8596 37.5282 9.6647ZM73.6164 11.5165C72.213 10.0734 70.0055 8.82846 67.1005 9.01406C63.4081 9.24971 60.8832 11.6104 59.7826 14.3193C59.1289 15.9292 58.941 17.8665 59.3816 19.6245C59.8557 21.5118 61.0941 23.1467 62.389 24.179C63.5313 25.0903 65.223 25.8619 67.0002 25.9807C68.9007 26.108 70.229 25.693 71.5113 25.0298C73.8315 23.8307 75.0261 22.2792 75.5712 19.2742H69.8572C69.308 20.1333 68.7733 21.3512 67.5516 21.2761C66.3048 21.199 65.8307 19.5077 65.6469 18.3733H75.6714C75.9534 15.3307 75.1305 13.0743 73.6164 11.5165ZM69.5064 15.9709H65.7472C65.8808 14.5883 67.255 12.8074 68.554 13.9689C69.0239 14.3881 69.356 15.1972 69.5064 15.9709ZM88.8035 9.8649C87.8992 10.2987 87.1161 10.8492 86.4979 11.4665C85.201 12.7615 84.1547 14.4882 83.9918 16.7216C83.7516 20.0166 85.0903 22.2625 86.7485 23.7786C88.3315 25.2279 90.4346 26.0475 92.8133 25.9807C95.1837 25.914 97.0863 24.8922 98.5273 23.4282C99.8472 22.0873 100.975 20.1104 100.983 17.5725C100.992 14.8469 99.7866 12.7365 98.3769 11.4164C96.9443 10.0755 94.7618 8.85766 91.9612 9.06411C90.6518 9.16004 89.7203 9.42488 88.8035 9.8649ZM92.2119 13.7187C93.9473 13.3683 94.6511 16.0919 94.5175 18.073C94.4152 19.6057 93.7155 21.1531 92.7632 21.3262C92.594 21.3575 92.3142 21.3429 92.2119 21.3262C90.9442 21.1239 90.2842 18.8654 90.4074 17.0219C90.4931 15.7394 90.9463 14.5445 91.5603 14.019C91.6981 13.9022 91.9612 13.7687 92.2119 13.7187ZM131.658 9.81485C130.512 9.27057 129.119 8.90562 127.548 9.01406C125.18 9.17672 123.509 10.1443 122.135 11.5165C120.498 13.1515 119.391 15.2264 119.629 18.3232C119.888 21.6786 122.231 24.2791 124.892 25.3802C126.558 26.0704 128.488 26.1726 130.205 25.7305C133.406 24.9068 135.52 22.7192 136.019 19.2742H130.305C129.783 20.1438 129.267 21.3408 128.049 21.2761C126.755 21.2073 126.308 19.5744 126.145 18.3733H136.169C136.524 13.9126 134.578 11.2016 131.658 9.81485ZM129.975 16.021H126.245C126.471 14.8302 127.097 13.3955 128.507 13.6937C129.34 13.8709 129.816 15.0909 129.975 16.021ZM139.277 11.8669C138.053 13.2453 136.913 15.3098 137.122 18.1731C137.299 20.6234 138.454 22.471 139.928 23.8286C141.422 25.205 143.675 26.1372 146.244 25.9807C148.733 25.8306 150.531 24.644 151.908 23.178C153.251 21.7495 154.301 19.6308 154.113 16.9218C154.03 15.729 153.662 14.6446 153.161 13.6686C151.82 11.0619 149.057 8.7513 145.041 9.06411C142.481 9.26431 140.538 10.4467 139.277 11.8669ZM145.392 13.7187C146.772 13.4851 147.507 15.3307 147.647 16.6716C147.852 18.6339 147.182 21.0947 145.893 21.3262C145.07 21.4742 144.467 20.8632 144.139 20.2751C143.134 18.4755 143.506 15.0512 144.69 14.019C144.853 13.8772 145.124 13.7646 145.392 13.7187ZM171.907 16.7216C171.907 14.7072 170.516 12.4299 169.1 11.2162C167.561 9.89618 165.639 8.85557 162.935 9.01406C160.19 9.17464 157.91 10.6907 156.669 12.3173C155.55 13.7854 154.915 15.679 154.915 17.9228V25.2801H161.381V17.072C161.381 15.6644 162.216 14.2734 163.486 14.3193C164.775 14.3652 165.491 15.5976 165.491 17.2221V25.2801H171.907V16.7216ZM24.9475 16.1711C24.9475 15.1096 24.9558 14.0315 24.8284 13.1181C24.6948 12.1547 24.1581 11.4894 23.5441 10.8659C23.1138 10.428 22.3954 9.91286 22.3912 9.26431C22.3871 8.68666 23.0199 8.15071 23.4438 7.71278C23.897 7.24357 24.4651 6.80356 24.747 6.36145C25.7098 4.85581 25.3297 2.94768 24.2458 1.80698C23.4689 1.27103 22.7567 0.701722 21.4389 0.805991C19.6241 0.947797 18.0431 2.47847 18.1308 4.55968C18.1977 6.12372 19.0873 6.77019 19.9352 7.61268C20.3968 8.07147 21.0567 8.72419 21.0379 9.31436C21.017 9.91078 20.3717 10.4154 19.9352 10.8659C19.4612 11.3559 19.0727 11.8231 18.8513 12.3173C18.442 13.2328 18.4817 14.7614 18.4817 16.1211V25.2801H24.9475V16.1711ZM173.348 23.1509H175.336V23.422H174.507V25.2863H174.164V23.422H173.348V23.1509ZM177.552 23.153H177.871V25.2863H177.529V23.6264L176.798 24.4522H176.735L175.994 23.6264V25.2863H175.653V23.153H175.975L176.766 24.0288L177.554 23.153H177.552Z" fill="#C6C6C6" fill-opacity="0.3"/>
</g>
<defs>
<clipPath id="clip0_1_471">
<rect width="177.582" height="25.2561" fill="white" transform="translate(0.289185 0.758301)"/>
</clipPath>
</defs>
</svg>
