<svg width="82" height="55" viewBox="0 0 82 55" fill="none" xmlns="http://www.w3.org/2000/svg">
<path d="M80.6952 44.4065H77.1829C77.0743 43.8152 76.9045 43.3964 76.6737 43.1618C76.298 42.7798 75.6576 42.5819 74.7727 42.5819C73.8879 42.5819 73.295 42.7292 72.9578 43.026C72.702 43.2469 72.5685 43.5552 72.5685 43.9371C72.5685 44.4778 73.3085 44.9104 74.7727 45.2417C76.4451 45.6098 77.6446 45.932 78.3823 46.1897C78.5769 46.2633 78.7467 46.3254 78.8666 46.3875C80.358 47.1031 81.0957 48.1868 81.0957 49.6386C81.0957 51.4125 80.3693 52.7056 78.9277 53.5178C78.7467 53.6167 78.5769 53.7019 78.3823 53.7893C77.4499 54.1966 76.3591 54.4036 75.1371 54.4036C73.3085 54.4036 71.8285 54.07 70.7038 53.4189C69.9954 53.0001 69.4659 52.4732 69.1128 51.8382C68.7598 51.2032 68.5833 50.4623 68.5833 49.6133H72.2653C72.2653 50.2529 72.4961 50.7591 72.9442 51.1042C73.3923 51.4609 74.1572 51.6472 75.2344 51.6472C76.0468 51.6472 76.6511 51.4747 77.0516 51.1295C77.3662 50.858 77.511 50.5612 77.511 50.2184C77.511 49.6386 76.7846 49.1853 75.343 48.8632C73.1863 48.3939 71.8308 48.0119 71.2741 47.7404C69.7963 47.0387 69.0698 45.955 69.0698 44.4525C69.0698 43.2469 69.4455 42.2253 70.2195 41.3878C71.1881 40.3409 72.6409 39.8232 74.5691 39.8232C76.1555 39.8232 77.4273 40.0579 78.3846 40.5135C78.4683 40.5503 78.543 40.5871 78.6154 40.6377C79.3056 41.0174 79.8262 41.5236 80.1747 42.154C80.5232 42.7798 80.6974 43.5322 80.6974 44.4065H80.6952Z" fill="#C6C6C6" fill-opacity="0.3"/>
<path d="M78.8169 35.6866C78.8169 35.6129 78.8056 35.5508 78.7694 35.5025C78.7332 35.4404 78.6856 35.4036 78.6132 35.3806C78.5657 35.3668 78.491 35.3552 78.3824 35.3414H77.8257V36.0317H78.3824C78.5408 36.0202 78.6494 35.9949 78.7105 35.9328C78.783 35.8706 78.8192 35.7832 78.8192 35.6866H78.8169ZM79.1088 35.3161C79.1812 35.4151 79.2175 35.5255 79.2175 35.6498C79.2175 35.8223 79.1564 35.9696 79.0364 36.0938C78.9165 36.2181 78.7581 36.2917 78.5657 36.3032C78.6494 36.34 78.7105 36.3768 78.7603 36.4251L79.0998 36.8807L79.3668 37.3363H78.93L78.7241 36.9681C78.5929 36.7357 78.4842 36.5609 78.3847 36.4758C78.3733 36.4643 78.3598 36.4504 78.3371 36.4389L78.0475 36.3538H77.8302V37.3386H77.4659V35.0239H78.2534C78.3032 35.0239 78.3507 35.0354 78.3869 35.0354C78.5815 35.0354 78.7264 35.0607 78.8237 35.0976C78.9436 35.1344 79.0409 35.208 79.1156 35.3184L79.1088 35.3161Z" fill="#C6C6C6" fill-opacity="0.3"/>
<path d="M80.1383 36.1558C80.1383 35.836 80.0659 35.5392 79.9074 35.2562C79.749 34.9731 79.5318 34.7523 79.2534 34.5912C78.9751 34.444 78.6831 34.3565 78.3935 34.3565H78.3821C78.0902 34.3565 77.8005 34.444 77.5244 34.5912C77.2438 34.7523 77.0266 34.9731 76.8682 35.2562C76.712 35.5392 76.626 35.836 76.626 36.1558C76.626 36.4756 76.7097 36.7586 76.8682 37.0416C77.0153 37.3108 77.2325 37.534 77.5109 37.6927C77.7892 37.8538 78.0812 37.9274 78.3821 37.9274H78.3935C78.6967 37.9274 78.9864 37.8538 79.267 37.6927C79.5454 37.534 79.7626 37.3108 79.9074 37.0416C80.0659 36.7563 80.1383 36.4618 80.1383 36.1558ZM80.489 36.1558C80.489 36.5124 80.4031 36.8713 80.2084 37.2142C80.0274 37.5593 79.7717 37.817 79.4345 38.001C79.095 38.1989 78.7555 38.2863 78.3912 38.2863H78.3799C78.0178 38.2863 77.6783 38.2012 77.3389 38.001C76.9994 37.817 76.7459 37.557 76.5626 37.2142C76.368 36.869 76.2843 36.5124 76.2843 36.1558C76.2843 35.7738 76.368 35.4172 76.5626 35.0721C76.7573 34.727 77.0107 34.4693 77.3502 34.2852C77.6896 34.1011 78.0291 34.0137 78.3799 34.0022H78.3912C78.742 34.0022 79.0837 34.1011 79.4209 34.2852C79.7603 34.4716 80.0274 34.7293 80.2084 35.0721C80.4031 35.4172 80.489 35.7738 80.489 36.1558Z" fill="#C6C6C6" fill-opacity="0.3"/>
<path d="M59.8841 18.7523L69.8303 35.6013H59.8841H53.8508L44.355 19.5047L37.1608 7.32408L44.355 2.92719L48.8857 0.156982L59.8841 18.7523Z" fill="#C6C6C6" fill-opacity="0.3"/>
<path d="M67.1033 47.2987V54.2081H63.7947V53.4443C62.679 54.1828 61.3484 54.6154 59.9181 54.6154H59.8819C55.9329 54.5901 52.7238 51.3137 52.7238 47.2987C52.7238 43.2838 55.9351 40.0097 59.8819 39.9844H59.9181C61.3461 39.9844 62.679 40.4169 63.7947 41.1532V40.3525H67.1033V47.2987ZM63.7947 48.0626V46.5348C63.444 44.6873 61.8327 43.2838 59.9181 43.2838H59.8819C57.7139 43.2976 55.9578 45.0945 55.9578 47.2987C55.9578 49.5029 57.7139 51.3022 59.8819 51.3275H59.9181C61.8327 51.3275 63.4417 49.9125 63.7947 48.0649V48.0626Z" fill="#C6C6C6" fill-opacity="0.3"/>
<path d="M51.5742 47.2988V54.2082H48.2679V53.4443C47.1409 54.1829 45.8215 54.6154 44.3913 54.6154H44.3551C40.406 54.5901 37.197 51.3137 37.197 47.2988C37.197 43.2838 40.406 40.0097 44.3551 39.9844H44.3913C45.8215 39.9844 47.1409 40.417 48.2679 41.1532V35.6013H51.5742V47.2988ZM48.2679 48.0626V46.5349C47.9171 44.6873 46.3036 43.2838 44.3913 43.2838H44.3551C42.1871 43.2976 40.4309 45.0946 40.4309 47.2988C40.4309 49.503 42.1871 51.3022 44.3551 51.3275H44.3913C46.3036 51.3275 47.9171 49.9125 48.2679 48.0649V48.0626Z" fill="#C6C6C6" fill-opacity="0.3"/>
<path d="M44.3551 28.975L48.2543 35.6014H44.3551H32.2885L23.4241 20.6L23.0371 19.9465L23.4241 19.7142L34.7733 12.7679L44.3551 28.975Z" fill="#C6C6C6" fill-opacity="0.3"/>
<path d="M35.9002 39.9844H32.3019V54.2081H35.9002V39.9844Z" fill="#C6C6C6" fill-opacity="0.3"/>
<path d="M35.9002 35.6748H32.3019V38.8891H35.9002V35.6748Z" fill="#C6C6C6" fill-opacity="0.3"/>
<path d="M30.6545 47.2988V54.2082H27.3482V53.4443C26.2212 54.1829 24.8905 54.6154 23.4603 54.6154H23.4241C19.475 54.5901 16.266 51.3137 16.266 47.2988C16.266 43.2838 19.4773 40.0097 23.4241 39.9844H23.4603C24.8905 39.9844 26.2235 40.417 27.3482 41.1532V35.6013H30.6545V47.2988ZM27.3482 48.0626V46.5349C26.9974 44.6873 25.3861 43.2838 23.4603 43.2838H23.4241C21.2561 43.2976 19.4999 45.0946 19.4999 47.2988C19.4999 49.503 21.2561 51.3022 23.4241 51.3275H23.4603C25.3861 51.3275 26.9974 49.9125 27.3482 48.0649V48.0626Z" fill="#C6C6C6" fill-opacity="0.3"/>
<path d="M23.4239 30.0585L26.694 35.6012H23.4239H10.7168L8.92224 32.5595L20.6607 25.3901L23.4239 30.0585Z" fill="#C6C6C6" fill-opacity="0.3"/>
<path d="M14.9668 47.2987V54.2081H11.6605V53.4443C10.5335 54.1828 9.20057 54.6154 7.77258 54.6154H7.73637C3.80091 54.5901 0.58963 51.3137 0.58963 47.2987C0.58963 43.2838 3.79865 40.0097 7.73637 39.9844H7.77258C9.20057 39.9844 10.5335 40.4169 11.6605 41.1532V40.3525H14.9668V47.2987ZM11.6605 48.0626V46.5348C11.3097 44.6873 9.69844 43.2838 7.77258 43.2838H7.73637C5.57967 43.2976 3.8258 45.0945 3.8258 47.2987C3.8258 49.5029 5.58194 51.3022 7.73637 51.3275H7.77258C9.69844 51.3275 11.3097 49.9125 11.6605 48.0649V48.0626Z" fill="#C6C6C6" fill-opacity="0.3"/>
</svg>
