<svg width="91" height="31" viewBox="0 0 91 31" fill="none" xmlns="http://www.w3.org/2000/svg">
<path fill-rule="evenodd" clip-rule="evenodd" d="M4.80084 1.24927H23.2288C25.3908 1.24927 27.1388 2.92652 27.1388 5.08843V5.36616C27.1388 7.52807 25.3962 9.27612 23.2288 9.27612H4.80084C2.63892 9.27612 0.820084 7.53352 0.820084 5.36616V5.08843C0.820084 2.92652 2.63348 1.24927 4.80084 1.24927Z" fill="#C6C6C6" fill-opacity="0.3"/>
<path fill-rule="evenodd" clip-rule="evenodd" d="M0.820128 15.348C0.820128 13.2569 2.77511 11.7212 4.93702 11.7212H21.2685C23.4304 11.7212 25.1784 13.4638 25.1784 15.6312V15.8381C25.1784 18 23.4358 19.748 21.2685 19.748H10.1703C9.60937 19.748 9.12471 20.2382 9.12471 20.7936V26.2392C9.12471 28.4011 7.38211 30.1492 5.21475 30.1492H4.72464C2.56273 30.1492 0.814682 28.4066 0.814682 26.2392V15.3534L0.820128 15.348Z" fill="#C6C6C6" fill-opacity="0.3"/>
<path fill-rule="evenodd" clip-rule="evenodd" d="M29.6439 26.2393L29.5731 4.6038C29.5731 2.44189 31.2503 0.623047 33.483 0.623047H33.9024C36.0643 0.623047 37.8123 2.43644 37.8123 4.6038L37.8831 26.2393C37.8831 28.4012 36.1405 30.1492 33.9732 30.1492H33.483C31.3211 30.1492 29.6439 28.4066 29.6439 26.2393Z" fill="#C6C6C6" fill-opacity="0.3"/>
<path fill-rule="evenodd" clip-rule="evenodd" d="M79.3407 3.20428L88.0646 17.4446C90.0196 20.5159 90.4389 21.2838 90.4389 23.5873C90.4389 27.1487 87.1606 29.8715 84.2962 29.8715H72.501C70.3391 29.8715 68.591 28.4066 68.591 26.2447V26.0378C68.591 23.8759 70.3337 22.1278 72.501 22.1278H79.76C80.1793 22.1278 80.4571 22.057 80.5987 21.7793C80.7402 21.4308 80.6694 21.2892 80.4571 20.9407L75.2946 12.6361C75.2238 12.4945 75.153 12.2876 75.0169 12.2876C74.81 12.2876 74.7392 12.4945 74.6684 12.6361L66.7831 26.1739C65.5252 28.3358 64.0603 29.8715 61.9692 29.8715H46.8249C43.8951 29.8715 41.0307 27.0779 41.0307 24.1482V4.60381C41.0307 2.44189 42.7733 0.693848 44.9407 0.693848H45.4308C47.5927 0.693848 49.3408 2.43645 49.3408 4.60381V20.5867C49.3408 21.1476 49.7601 21.6323 50.3863 21.6323H57.9231C59.2518 21.6323 60.0142 21.1422 60.7167 19.955L70.8347 3.20428C71.8094 1.59782 73.3451 0.759195 75.1639 0.759195C76.9828 0.759195 78.306 1.52703 79.3516 3.20428H79.3407Z" fill="#C6C6C6" fill-opacity="0.3"/>
<path fill-rule="evenodd" clip-rule="evenodd" d="M4.80084 1.24927H23.2288C25.3908 1.24927 27.1388 2.92652 27.1388 5.08843V5.36616C27.1388 7.52807 25.3962 9.27612 23.2288 9.27612H4.80084C2.63892 9.27612 0.820084 7.53352 0.820084 5.36616V5.08843C0.820084 2.92652 2.63348 1.24927 4.80084 1.24927Z" fill="#C6C6C6" fill-opacity="0.3"/>
</svg>
