<svg width="105" height="45" viewBox="0 0 105 45" fill="none" xmlns="http://www.w3.org/2000/svg">
<g clip-path="url(#clip0_1_461)">
<path d="M98.995 42.7977L83.5598 0.718527L83.5493 0.690674H83.2447L80.0662 9.33779L74.2797 25.0801L74.2661 25.0676C72.2606 23.3154 69.4312 22.2201 65.8678 21.8122L64.7809 21.7011L65.8591 21.5642C71.7356 20.5186 75.6857 16.8437 75.6857 12.4161C75.6857 6.34466 69.9185 2.10683 61.6575 2.10683H44.469V2.41424H49.4635V33.7867L37.3337 0.718423L37.3228 0.690674H37.0182L33.8396 9.33779L21.5802 42.6894L21.5047 42.6981C21.2952 42.7237 21.088 42.744 20.883 42.7594C20.5746 42.7833 20.268 42.7976 19.9605 42.7976H7.57329L31.1196 2.41414L31.2947 2.11064H2.49653V14.6031H2.8021C2.85627 8.5182 6.43511 2.41414 14.3423 2.41414H23.8816L0.157349 43.1002H32.1185V31.1316H31.813C31.7713 36.4351 28.735 41.4726 22.1324 42.61L21.9225 42.6455L26.9509 28.96H41.0371L46.1128 42.7977H41.1058V43.1003H60.7581V42.7977H55.7297V21.9242H61.5317C67.4362 21.9242 70.8226 24.5362 70.8226 29.0881V32.7908C70.8226 33.1988 70.8506 33.7952 70.8816 34.2941V34.3123L67.763 42.7958H63.689V43.0983H72.1222V42.7958H68.0919L70.9319 35.0707C70.9378 35.1454 70.9407 35.1903 70.9407 35.1903L71.019 35.8864L71.0944 36.3469C71.5683 39.1955 72.6686 41.2896 74.3639 42.5707L74.6075 42.7459C75.8955 43.6326 77.496 44.0816 79.3671 44.0816C81.8455 44.0816 83.4981 43.4698 84.8625 42.0298L84.6836 41.8631C83.4265 43.0121 82.3715 43.4775 81.0497 43.4775C78.7975 43.4775 77.6188 40.7725 77.6188 38.105V32.9171C77.6308 31.6299 77.4272 30.3496 77.0163 29.1284L76.9603 28.9675V28.9618H87.2634L92.3391 42.7996H87.3321V43.1021H104.339V42.7996L98.995 42.7977ZM27.063 28.6573L34.0022 9.78024L40.9259 28.6573H27.063ZM55.7327 21.6206V2.41414H60.1614C66.0776 2.41414 69.2009 5.89654 69.2009 12.4813C69.2009 19.4844 67.4081 21.6206 61.5317 21.6206H55.7327ZM76.8402 28.6573L76.8102 28.5827C76.3524 27.4784 75.6858 26.471 74.8462 25.6144L74.5562 25.3271L74.5252 25.2984L80.2247 9.78024L87.1484 28.6573H76.8402Z" fill="#C6C6C6" fill-opacity="0.3"/>
</g>
<defs>
<clipPath id="clip0_1_461">
<rect width="104.181" height="43.4089" fill="white" transform="translate(0.15741 0.681763)"/>
</clipPath>
</defs>
</svg>
