<svg version="1.2" xmlns="http://www.w3.org/2000/svg" viewBox="0 0 208 139" width="170" height="114">
	<title>Swift_(programming_language)-Logo</title>
	<style>
		.s0 { fill: #494c54 } 
		.s1 { fill: #ffffff } 
	</style>
	<path class="s0" d="m73.5 58.7q0-0.7 0-1.5c-0.1-1.1-0.1-2.2-0.3-3.2-0.2-1.1-0.5-2.1-1-3.1q-0.2-0.4-0.4-0.7-0.2-0.4-0.5-0.7-0.2-0.3-0.5-0.7-0.3-0.3-0.5-0.6-0.3-0.2-0.6-0.5-0.4-0.3-0.7-0.5-0.3-0.3-0.7-0.5-0.3-0.2-0.7-0.4c-1-0.5-2-0.8-3.1-1-1-0.2-2.1-0.2-3.2-0.3q-0.2 0-0.4 0-0.2 0-0.4 0-0.2 0-0.3 0-0.2 0-0.4 0-0.9 0-1.8 0h-18.5q-0.9 0-1.8 0-0.2 0-0.4 0-0.2 0-0.3 0-0.2 0-0.4 0-0.2 0-0.4 0-0.1 0-0.2 0-0.1 0-0.2 0-0.1 0-0.2 0-0.1 0.1-0.2 0.1-1.2 0-2.4 0.2-1.3 0.2-2.4 0.7-0.5 0.2-0.9 0.4-0.5 0.3-0.9 0.5-0.4 0.3-0.8 0.7-0.4 0.3-0.8 0.6-0.2 0.3-0.5 0.6-0.3 0.4-0.5 0.7-0.3 0.3-0.5 0.7-0.2 0.3-0.4 0.7c-0.5 1-0.8 2-1 3.1-0.2 1-0.2 2.1-0.3 3.2q0 0.2 0 0.4 0 0.2 0 0.4 0 0.1 0 0.3 0 0.2 0 0.4 0 0.9 0 1.8v18.5q0 0.9 0 1.8 0 0.2 0 0.4 0 0.1 0 0.3 0 0.2 0 0.4 0 0.2 0 0.4c0.1 1.1 0.1 2.2 0.3 3.2 0.2 1.1 0.5 2.1 1 3.1q0.2 0.4 0.4 0.7 0.2 0.4 0.5 0.7 0.2 0.3 0.5 0.7 0.3 0.3 0.5 0.6 0.3 0.2 0.6 0.5 0.4 0.3 0.7 0.5 0.3 0.3 0.7 0.5 0.3 0.2 0.7 0.4c1 0.5 2 0.8 3.1 1 1 0.2 2.1 0.2 3.2 0.3q0.2 0 0.4 0 0.2 0 0.4 0 0.1 0 0.3 0 0.2 0 0.4 0 0.9 0 1.8 0h18.5q0.9 0 1.8 0 0.2 0 0.4 0 0.1 0 0.3 0 0.2 0 0.4 0 0.2 0 0.4 0c1.1-0.1 2.2-0.1 3.2-0.3 1.1-0.2 2.1-0.5 3.1-1q0.4-0.2 0.7-0.4 0.4-0.2 0.7-0.5 0.3-0.2 0.7-0.5 0.3-0.3 0.6-0.5 0.2-0.3 0.5-0.6 0.3-0.4 0.5-0.7 0.3-0.3 0.5-0.7 0.2-0.3 0.4-0.7c0.5-1 0.8-2 1-3.1 0.2-1 0.2-2.1 0.3-3.2q0-0.8 0-1.5 0-0.9 0-1.8v-18.5q0-0.9 0-1.8z"/>
	<path class="s1" d="m63.2 75.6v-0.1q0.1-0.2 0.2-0.5c2-8.2-3-17.9-11.5-23 3.7 5.1 5.4 11.2 3.9 16.5q-0.2 0.7-0.4 1.4-0.3-0.2-0.8-0.4c0 0-8.4-5.3-17.6-14.5-0.2-0.2 4.9 7.3 10.7 13.5-2.7-1.6-10.3-7.1-15.2-11.5q0.9 1.5 2.1 2.8c4 5.1 9.3 11.5 15.6 16.3-4.4 2.7-10.7 2.9-16.9 0q-2.3-1.1-4.3-2.6c2.6 4.2 6.7 7.9 11.6 10 5.9 2.5 11.8 2.4 16.1 0q0 0 0.1 0 0.2-0.1 0.5-0.3c2.1-1.1 6.2-2.2 8.5 2.1 0.5 1.1 1.7-4.5-2.6-9.7z"/>
	<path fill-rule="evenodd" class="s0" d="m92.3 77.1c0.4 3.5 3.6 5.7 8.2 5.7 4.3 0 7.4-2.2 7.4-5.4 0-2.6-1.9-4.3-6.2-5.4l-4.2-1c-6.1-1.5-8.8-4.3-8.8-8.8 0-5.5 4.8-9.4 11.7-9.4 6.7 0 11.5 3.9 11.6 9.5h-4.4c-0.3-3.4-3.1-5.5-7.3-5.5-4.1 0-7 2.1-7 5.2 0 2.4 1.8 3.8 6.2 4.9l3.5 0.9c6.8 1.7 9.5 4.3 9.5 9.1 0 6-4.8 9.8-12.4 9.8-7.1 0-11.9-3.7-12.3-9.6 0 0 4.5 0 4.5 0zm48.4 9.1h-4.5l-5.2-18.2-5.2 18.2h-4.5l-6.6-23.8h4.3l4.6 19.1h0.1l5.2-19.1h4.2l5.2 19.1h0.1l4.6-19.1h4.3zm12.1-27.5c-1.5 0-2.7-1.2-2.7-2.6 0-1.5 1.2-2.6 2.7-2.6 1.4 0 2.6 1.1 2.6 2.6 0 1.4-1.2 2.6-2.6 2.6zm2.1 3.8v23.7h-4.3v-23.7zm23.8 3.5v13.7c0 2.1 0.9 3 2.9 3 0.5 0 1.3 0 1.6-0.1v3.6c-0.5 0.1-1.6 0.2-2.6 0.2-4.5 0-6.3-1.8-6.3-6.4v-14h-8.2v20.2h-4.4v-20.2h-3.3v-3.5h3.3v-2.2c0-4.4 2-6.4 6.6-6.4 0.8 0 1.6 0.1 2.3 0.2v3.4c-0.5-0.1-1.1-0.1-1.8-0.1-1.9 0-2.7 0.9-2.8 3v2.1h8.3v-5.7h4.4v5.7h4.5v3.5z"/>
</svg>