<svg version="1.2" xmlns="http://www.w3.org/2000/svg" viewBox="0 0 186 61" width="130" height="43">
	<title>swift-horizontal</title>
	<style>
		.s0 { fill: #484c53 } 
		.s1 { fill: #141924 } 
	</style>
	<path class="s0" d="m58.7 19.4v-1.5q0-1.7-0.3-3.3c-0.2-1.1-0.5-2.1-1-3.1-0.5-1-1.2-1.9-1.9-2.7-0.8-0.8-1.7-1.4-2.7-1.9-1-0.5-2-0.9-3.1-1.1q-1.7-0.2-3.3-0.2h-26.1c-0.8 0-1.6 0.1-2.4 0.2-0.8 0.2-1.6 0.4-2.3 0.7-0.3 0.1-0.6 0.3-0.8 0.4-0.8 0.3-1.4 0.8-2 1.3-0.2 0.2-0.4 0.3-0.6 0.6-0.8 0.7-1.4 1.7-1.9 2.7-0.5 1-0.9 2-1 3.1q-0.3 1.6-0.3 3.3v25.3q0 1.6 0.3 3.2c0.1 1.1 0.5 2.1 1 3.1 0.5 1.1 1.1 1.9 1.9 2.7 0.7 0.8 1.7 1.5 2.7 2 1 0.5 2 0.8 3.1 1q1.6 0.2 3.3 0.2h25.2q1.6 0 3.2-0.2c1.1-0.2 2.1-0.5 3.2-1 1-0.5 1.8-1.2 2.6-2 0.8-0.7 1.5-1.6 2-2.7 0.5-1 0.8-2 1-3.1q0.2-1.6 0.2-3.2v-22c0-0.6 0-1.2 0-1.8z"/>
	<path class="s1" d="m48.3 36.4c0.1-0.2 0.1-0.5 0.2-0.6 2.1-8.3-3-18-11.5-23.1 3.8 5 5.4 11.2 3.9 16.6-0.1 0.5-0.2 0.9-0.5 1.4-0.1-0.1-0.4-0.2-0.7-0.4 0 0-8.5-5.3-17.8-14.5-0.2-0.3 5 7.4 10.8 13.5-2.8-1.5-10.4-7.1-15.3-11.6 0.6 1 1.4 1.9 2.1 2.9 4 5.1 9.3 11.5 15.7 16.3-4.4 2.7-10.7 3-17 0-1.6-0.7-3.1-1.6-4.4-2.6 2.7 4.3 6.7 7.9 11.8 10.1 5.9 2.5 11.8 2.4 16.2 0.1h0.1c0.1-0.1 0.3-0.2 0.5-0.3 2.1-1.1 6.3-2.2 8.5 2.2 0.5 0.9 1.7-4.8-2.6-10z"/>
	<path class="s0" d="m71.3 46.6c1.1 0.7 2.4 1.3 3.8 1.8q0.5 0.2 1.1 0.3 0.6 0.1 1.1 0.2 0.6 0.1 1.2 0.1 0.5 0.1 1.1 0.1c2.9 0 5.1-0.8 6.8-2.2 1.6-1.5 2.5-3.4 2.5-5.9 0-2.2-0.6-3.9-1.8-5.4-1.2-1.3-3.2-2.6-6-3.7-3-1.1-5.3-2.5-7.1-4.2-1.8-1.6-2.7-3.8-2.7-6.5 0-1.4 0.2-2.8 0.8-4 0.6-1.1 1.4-2.2 2.3-3.1 0.9-0.8 2.2-1.5 3.5-2 1.4-0.5 2.9-0.7 4.5-0.7 1.8 0 3.4 0.1 4.7 0.5 1.3 0.5 2.3 0.8 2.9 1.2l-1.1 2.3c-0.5-0.4-1.4-0.8-2.5-1.2-1.2-0.4-2.5-0.6-4.1-0.6-1.5 0-2.9 0.3-3.9 0.7-1.1 0.4-1.9 1-2.5 1.7-0.7 0.7-1.1 1.4-1.3 2.2-0.3 0.9-0.4 1.6-0.4 2.5 0 2.2 0.6 3.9 1.9 5.1q1.9 1.9 6 3.5c1.6 0.7 3 1.4 4.2 2.1 1.2 0.8 2.2 1.6 3.1 2.5 0.8 0.9 1.4 1.8 1.8 3 0.4 1.1 0.6 2.4 0.6 3.8q0 2.1-0.8 4-0.1 0.5-0.4 1-0.2 0.4-0.5 0.9-0.3 0.4-0.6 0.8-0.4 0.4-0.7 0.8c-1 1-2.3 1.7-3.8 2.3-1.5 0.6-3.3 0.9-5.3 0.9-0.8 0-1.7-0.1-2.5-0.2l-2.5-0.6c-0.9-0.3-1.6-0.5-2.3-0.8l-1.9-1 0.8-2.2zm25.3-23.5l4.5 15.7 1.3 4.6 1 4.1h0.2l1.1-4.1 1.6-4.6 5.4-15.8h2.5l5.2 15.6 1.5 4.7c0.6 1.4 0.9 2.8 1.2 4.1h0.2q0.4-2 1-4.1l1.4-4.7 4.9-15.6h2.8l-9.1 27.7h-2.4l-5.1-15.5-1.6-4.7c-0.5-1.5-0.8-3-1.2-4.6l-1.4 4.8-1.6 4.7-5.4 15.4h-2.4l-8.4-27.7h2.8zm40.5-8.4c0-0.7 0.2-1.2 0.7-1.7 0.4-0.5 1-0.6 1.6-0.6 0.7 0 1.2 0.2 1.7 0.6 0.4 0.5 0.7 1 0.7 1.7 0 0.7-0.3 1.2-0.7 1.7-0.5 0.4-1 0.7-1.7 0.7-0.6 0-1.1-0.3-1.6-0.7-0.5-0.5-0.7-1-0.7-1.7zm1 36.2v-27.8h2.7v27.8zm13.8 0v-25.6h-4v-2.1h4v-1.6c0-1.7 0.1-3.3 0.4-4.9 0.3-1.5 0.8-2.7 1.5-3.8 0.7-1.1 1.7-2 2.8-2.6 1.2-0.7 2.6-0.9 4.3-0.9 0.9 0 1.6 0 2.3 0.2 0.7 0.2 1.3 0.4 1.7 0.7l-0.8 2.1-1.4-0.5q-0.7-0.3-2-0.3c-1.4 0-2.4 0.3-3.1 0.9-0.8 0.5-1.4 1.2-1.9 2.1-0.4 1-0.7 2-0.9 3.2q0 0.5-0.1 1 0 0.5-0.1 0.9 0 0.5 0 1 0 0.4 0 0.9v1.6h13.2v2.1h-13.1v25.6h-2.8z"/>
	<path class="s0" d="m169.7 17v6.2h7.7v2.1h-7.7v18.1c0 1.8 0.3 3.2 0.9 4.2 0.6 1.1 1.6 1.6 3.1 1.6l1.8-0.1 1.3-0.3 0.2 2.1c-0.9 0.4-2.2 0.7-3.7 0.7-1.2 0-2.3-0.3-3.1-0.7-0.8-0.4-1.4-1-1.9-1.7-0.5-0.8-0.9-1.7-1-2.7-0.2-1.1-0.3-2.2-0.3-3.5v-17.5h0.2v-2.1h-0.2v-5.2c0 0 2.7-1.2 2.7-1.2z"/>
</svg>	